<mxfile host="app.diagrams.net" agent="Mozilla/5.0 (Windows NT 10.0; Win64; x64) AppleWebKit/537.36 (KHTML, like Gecko) Chrome/134.0.0.0 Safari/537.36" version="26.1.1">
  <diagram name="第 1 页" id="SnrgQCflkOMAPPpGuBxI">
    <mxGraphModel dx="1430" dy="1926" grid="0" gridSize="10" guides="1" tooltips="1" connect="1" arrows="1" fold="1" page="1" pageScale="1" pageWidth="827" pageHeight="1169" math="1" shadow="0">
      <root>
        <mxCell id="0" />
        <mxCell id="1" parent="0" />
        <mxCell id="o612tRX_a-N4mE84uSn3-1" value="" style="rounded=1;whiteSpace=wrap;html=1;strokeColor=none;strokeWidth=2;fillColor=#EDEDED;" vertex="1" parent="1">
          <mxGeometry x="110.5" y="-732" width="834" height="198" as="geometry" />
        </mxCell>
        <mxCell id="o612tRX_a-N4mE84uSn3-2" value="" style="rounded=1;whiteSpace=wrap;html=1;strokeColor=none;strokeWidth=1;fillColor=#EDEDED;" vertex="1" parent="1">
          <mxGeometry x="325" y="-1044" width="620" height="296" as="geometry" />
        </mxCell>
        <mxCell id="o612tRX_a-N4mE84uSn3-3" value="基于距离的奖励值更新" style="rounded=1;whiteSpace=wrap;html=1;fontSize=24;fontFamily=Times New Roman;fillColor=#D5E8D4;strokeColor=#9AC7BF;fontColor=#242424;shadow=1;" vertex="1" parent="1">
          <mxGeometry x="559" y="-989" width="173" height="83.21" as="geometry" />
        </mxCell>
        <mxCell id="o612tRX_a-N4mE84uSn3-4" value="可信度更新" style="rounded=1;whiteSpace=wrap;html=1;fontSize=24;fontFamily=Times New Roman;fillColor=#D5E8D4;strokeColor=#9AC7BF;fontColor=#242424;shadow=1;" vertex="1" parent="1">
          <mxGeometry x="581" y="-844.09" width="129" height="72.21" as="geometry" />
        </mxCell>
        <mxCell id="o612tRX_a-N4mE84uSn3-5" value="&lt;font face=&quot;Times New Roman&quot;&gt;&lt;font style=&quot;color: rgb(0, 0, 0);&quot;&gt;特征提取层评估模块&lt;/font&gt;&lt;/font&gt;" style="text;html=1;align=center;verticalAlign=middle;resizable=0;points=[];autosize=1;strokeColor=none;fillColor=none;fontSize=24;fontFamily=Comic Sans MS;fontColor=#FF0000;fontStyle=1" vertex="1" parent="1">
          <mxGeometry x="519" y="-1039" width="234" height="42" as="geometry" />
        </mxCell>
        <mxCell id="o612tRX_a-N4mE84uSn3-6" style="edgeStyle=orthogonalEdgeStyle;rounded=0;orthogonalLoop=1;jettySize=auto;html=1;entryX=1;entryY=0.5;entryDx=0;entryDy=0;" edge="1" parent="1" source="o612tRX_a-N4mE84uSn3-7" target="o612tRX_a-N4mE84uSn3-9">
          <mxGeometry relative="1" as="geometry" />
        </mxCell>
        <mxCell id="o612tRX_a-N4mE84uSn3-7" value="$$\overline{\omega}_{ij},j\in N_i$$" style="rounded=1;whiteSpace=wrap;html=1;fontSize=24;fontFamily=Times New Roman;fillColor=#FFF2CC;strokeColor=#FFCE9F;fontColor=#242424;shadow=1;" vertex="1" parent="1">
          <mxGeometry x="570.4999999999998" y="-696.0399999999998" width="150" height="70.28" as="geometry" />
        </mxCell>
        <mxCell id="o612tRX_a-N4mE84uSn3-8" style="edgeStyle=orthogonalEdgeStyle;rounded=0;orthogonalLoop=1;jettySize=auto;html=1;" edge="1" parent="1" source="o612tRX_a-N4mE84uSn3-74" target="o612tRX_a-N4mE84uSn3-3">
          <mxGeometry relative="1" as="geometry" />
        </mxCell>
        <mxCell id="o612tRX_a-N4mE84uSn3-9" value="加权聚合" style="rounded=1;whiteSpace=wrap;html=1;fontSize=24;fontFamily=Times New Roman;fillColor=#FFF2CC;strokeColor=#FFCE9F;fontColor=#242424;shadow=1;" vertex="1" parent="1">
          <mxGeometry x="398.72" y="-697" width="129" height="72.21" as="geometry" />
        </mxCell>
        <mxCell id="o612tRX_a-N4mE84uSn3-10" value="节点i" style="text;html=1;align=center;verticalAlign=middle;resizable=0;points=[];autosize=1;strokeColor=none;fillColor=none;fontSize=24;fontFamily=Times New Roman;container=0;fontColor=#242424;" vertex="1" parent="1">
          <mxGeometry x="149" y="-999.99" width="73" height="41" as="geometry" />
        </mxCell>
        <mxCell id="o612tRX_a-N4mE84uSn3-11" value="" style="html=1;shadow=0;dashed=0;align=center;verticalAlign=middle;shape=mxgraph.arrows2.stylisedArrow;dy=0.76;dx=18.55;notch=7.74;feather=0.49;rotation=-30;aspect=fixed;fillColor=#FFF2CC;strokeColor=#FFCE9F;fontColor=#242424;" vertex="1" parent="1">
          <mxGeometry x="272.5" y="-932.97" width="46.96" height="30.98" as="geometry" />
        </mxCell>
        <mxCell id="o612tRX_a-N4mE84uSn3-12" style="edgeStyle=orthogonalEdgeStyle;rounded=0;orthogonalLoop=1;jettySize=auto;html=1;entryX=0;entryY=0.5;entryDx=0;entryDy=0;" edge="1" parent="1" source="o612tRX_a-N4mE84uSn3-57" target="o612tRX_a-N4mE84uSn3-9">
          <mxGeometry relative="1" as="geometry" />
        </mxCell>
        <mxCell id="o612tRX_a-N4mE84uSn3-13" value="" style="group" vertex="1" connectable="0" parent="1">
          <mxGeometry x="743.5" y="-883" width="183.88" height="117" as="geometry" />
        </mxCell>
        <mxCell id="o612tRX_a-N4mE84uSn3-14" value="" style="rounded=1;whiteSpace=wrap;html=1;fillColor=#F7F7F7;strokeColor=#CCCCCC;movable=1;resizable=1;rotatable=1;deletable=1;editable=1;locked=0;connectable=1;fontColor=#242424;container=0;shadow=1;" vertex="1" parent="o612tRX_a-N4mE84uSn3-13">
          <mxGeometry width="146.35222944293218" height="86.99999999999997" as="geometry" />
        </mxCell>
        <mxCell id="o612tRX_a-N4mE84uSn3-15" value="" style="ellipse;whiteSpace=wrap;html=1;fillColor=#E1D5E7;strokeColor=#A680B8;movable=1;resizable=1;rotatable=1;deletable=1;editable=1;locked=0;connectable=1;fontColor=#242424;container=0;" vertex="1" parent="o612tRX_a-N4mE84uSn3-13">
          <mxGeometry x="109.29206811625419" y="15.837656797252293" width="28.326237956696545" height="28.013763711658378" as="geometry" />
        </mxCell>
        <mxCell id="o612tRX_a-N4mE84uSn3-16" value="" style="ellipse;whiteSpace=wrap;html=1;fillColor=#E1D5E7;strokeColor=#A680B8;movable=1;resizable=1;rotatable=1;deletable=1;editable=1;locked=0;connectable=1;fontColor=#242424;container=0;" vertex="1" parent="o612tRX_a-N4mE84uSn3-13">
          <mxGeometry x="59.24904772609028" y="15.837656797252293" width="28.326237956696545" height="28.013763711658378" as="geometry" />
        </mxCell>
        <mxCell id="o612tRX_a-N4mE84uSn3-17" value="" style="ellipse;whiteSpace=wrap;html=1;fillColor=#E1D5E7;strokeColor=#A680B8;movable=1;resizable=1;rotatable=1;deletable=1;editable=1;locked=0;connectable=1;fontColor=#242424;container=0;" vertex="1" parent="o612tRX_a-N4mE84uSn3-13">
          <mxGeometry x="9.206027335926379" y="15.837656797252293" width="28.326237956696545" height="28.013763711658378" as="geometry" />
        </mxCell>
        <mxCell id="o612tRX_a-N4mE84uSn3-18" style="rounded=0;orthogonalLoop=1;jettySize=auto;html=1;exitX=0.5;exitY=1;exitDx=0;exitDy=0;entryX=0.5;entryY=0;entryDx=0;entryDy=0;dashed=1;endArrow=classicThin;endFill=1;movable=1;resizable=1;rotatable=1;deletable=1;editable=1;locked=0;connectable=1;fontColor=#242424;" edge="1" parent="o612tRX_a-N4mE84uSn3-13" source="o612tRX_a-N4mE84uSn3-17">
          <mxGeometry relative="1" as="geometry">
            <mxPoint x="51.6953842709712" y="78.40172908662271" as="targetPoint" />
          </mxGeometry>
        </mxCell>
        <mxCell id="o612tRX_a-N4mE84uSn3-19" style="rounded=0;orthogonalLoop=1;jettySize=auto;html=1;exitX=0.5;exitY=1;exitDx=0;exitDy=0;entryX=0.5;entryY=0;entryDx=0;entryDy=0;dashed=1;endArrow=classicThin;endFill=1;movable=1;resizable=1;rotatable=1;deletable=1;editable=1;locked=0;connectable=1;fontColor=#242424;" edge="1" parent="o612tRX_a-N4mE84uSn3-13" source="o612tRX_a-N4mE84uSn3-15">
          <mxGeometry relative="1" as="geometry">
            <mxPoint x="51.6953842709712" y="78.40172908662271" as="targetPoint" />
          </mxGeometry>
        </mxCell>
        <mxCell id="o612tRX_a-N4mE84uSn3-20" style="rounded=0;orthogonalLoop=1;jettySize=auto;html=1;exitX=0.5;exitY=1;exitDx=0;exitDy=0;entryX=0.5;entryY=0;entryDx=0;entryDy=0;dashed=1;endArrow=classicThin;endFill=1;movable=1;resizable=1;rotatable=1;deletable=1;editable=1;locked=0;connectable=1;fontColor=#242424;" edge="1" parent="o612tRX_a-N4mE84uSn3-13" source="o612tRX_a-N4mE84uSn3-16">
          <mxGeometry relative="1" as="geometry">
            <mxPoint x="51.6953842709712" y="78.40172908662271" as="targetPoint" />
          </mxGeometry>
        </mxCell>
        <mxCell id="o612tRX_a-N4mE84uSn3-21" style="rounded=0;orthogonalLoop=1;jettySize=auto;html=1;exitX=0.5;exitY=1;exitDx=0;exitDy=0;entryX=0.5;entryY=0;entryDx=0;entryDy=0;dashed=1;endArrow=classicThin;endFill=1;movable=1;resizable=1;rotatable=1;deletable=1;editable=1;locked=0;connectable=1;fontColor=#242424;" edge="1" parent="o612tRX_a-N4mE84uSn3-13" source="o612tRX_a-N4mE84uSn3-17">
          <mxGeometry relative="1" as="geometry">
            <mxPoint x="95.1289491379059" y="78.40172908662271" as="targetPoint" />
          </mxGeometry>
        </mxCell>
        <mxCell id="o612tRX_a-N4mE84uSn3-22" style="rounded=0;orthogonalLoop=1;jettySize=auto;html=1;exitX=0.5;exitY=1;exitDx=0;exitDy=0;entryX=0.5;entryY=0;entryDx=0;entryDy=0;dashed=1;endArrow=classicThin;endFill=1;movable=1;resizable=1;rotatable=1;deletable=1;editable=1;locked=0;connectable=1;fontColor=#242424;" edge="1" parent="o612tRX_a-N4mE84uSn3-13" source="o612tRX_a-N4mE84uSn3-16">
          <mxGeometry relative="1" as="geometry">
            <mxPoint x="95.1289491379059" y="78.40172908662271" as="targetPoint" />
          </mxGeometry>
        </mxCell>
        <mxCell id="o612tRX_a-N4mE84uSn3-23" style="rounded=0;orthogonalLoop=1;jettySize=auto;html=1;exitX=0.5;exitY=1;exitDx=0;exitDy=0;entryX=0.5;entryY=0;entryDx=0;entryDy=0;dashed=1;endArrow=classicThin;endFill=1;movable=1;resizable=1;rotatable=1;deletable=1;editable=1;locked=0;connectable=1;fontColor=#242424;" edge="1" parent="o612tRX_a-N4mE84uSn3-13" source="o612tRX_a-N4mE84uSn3-15">
          <mxGeometry relative="1" as="geometry">
            <mxPoint x="95.1289491379059" y="78.40172908662271" as="targetPoint" />
          </mxGeometry>
        </mxCell>
        <mxCell id="o612tRX_a-N4mE84uSn3-24" value="" style="rounded=1;whiteSpace=wrap;html=1;fillColor=#F7F7F7;strokeColor=#CCCCCC;movable=1;resizable=1;rotatable=1;deletable=1;editable=1;locked=0;connectable=1;fontColor=#242424;container=0;shadow=1;" vertex="1" parent="o612tRX_a-N4mE84uSn3-13">
          <mxGeometry x="9.44207931889885" y="10" width="146.35222944293218" height="86.99999999999997" as="geometry" />
        </mxCell>
        <mxCell id="o612tRX_a-N4mE84uSn3-25" value="" style="ellipse;whiteSpace=wrap;html=1;fillColor=#E1D5E7;strokeColor=#A680B8;movable=1;resizable=1;rotatable=1;deletable=1;editable=1;locked=0;connectable=1;fontColor=#242424;container=0;" vertex="1" parent="o612tRX_a-N4mE84uSn3-13">
          <mxGeometry x="118.73414743515303" y="25.837656797252293" width="28.326237956696545" height="28.013763711658378" as="geometry" />
        </mxCell>
        <mxCell id="o612tRX_a-N4mE84uSn3-26" value="" style="ellipse;whiteSpace=wrap;html=1;fillColor=#E1D5E7;strokeColor=#A680B8;movable=1;resizable=1;rotatable=1;deletable=1;editable=1;locked=0;connectable=1;fontColor=#242424;container=0;" vertex="1" parent="o612tRX_a-N4mE84uSn3-13">
          <mxGeometry x="68.69112704498913" y="25.837656797252293" width="28.326237956696545" height="28.013763711658378" as="geometry" />
        </mxCell>
        <mxCell id="o612tRX_a-N4mE84uSn3-27" value="" style="ellipse;whiteSpace=wrap;html=1;fillColor=#E1D5E7;strokeColor=#A680B8;movable=1;resizable=1;rotatable=1;deletable=1;editable=1;locked=0;connectable=1;fontColor=#242424;container=0;" vertex="1" parent="o612tRX_a-N4mE84uSn3-13">
          <mxGeometry x="18.648106654825227" y="25.837656797252293" width="28.326237956696545" height="28.013763711658378" as="geometry" />
        </mxCell>
        <mxCell id="o612tRX_a-N4mE84uSn3-28" style="rounded=0;orthogonalLoop=1;jettySize=auto;html=1;exitX=0.5;exitY=1;exitDx=0;exitDy=0;entryX=0.5;entryY=0;entryDx=0;entryDy=0;dashed=1;endArrow=classicThin;endFill=1;movable=1;resizable=1;rotatable=1;deletable=1;editable=1;locked=0;connectable=1;fontColor=#242424;" edge="1" parent="o612tRX_a-N4mE84uSn3-13" source="o612tRX_a-N4mE84uSn3-27">
          <mxGeometry relative="1" as="geometry">
            <mxPoint x="61.13746358987005" y="88.40172908662271" as="targetPoint" />
          </mxGeometry>
        </mxCell>
        <mxCell id="o612tRX_a-N4mE84uSn3-29" style="rounded=0;orthogonalLoop=1;jettySize=auto;html=1;exitX=0.5;exitY=1;exitDx=0;exitDy=0;entryX=0.5;entryY=0;entryDx=0;entryDy=0;dashed=1;endArrow=classicThin;endFill=1;movable=1;resizable=1;rotatable=1;deletable=1;editable=1;locked=0;connectable=1;fontColor=#242424;" edge="1" parent="o612tRX_a-N4mE84uSn3-13" source="o612tRX_a-N4mE84uSn3-25">
          <mxGeometry relative="1" as="geometry">
            <mxPoint x="61.13746358987005" y="88.40172908662271" as="targetPoint" />
          </mxGeometry>
        </mxCell>
        <mxCell id="o612tRX_a-N4mE84uSn3-30" style="rounded=0;orthogonalLoop=1;jettySize=auto;html=1;exitX=0.5;exitY=1;exitDx=0;exitDy=0;entryX=0.5;entryY=0;entryDx=0;entryDy=0;dashed=1;endArrow=classicThin;endFill=1;movable=1;resizable=1;rotatable=1;deletable=1;editable=1;locked=0;connectable=1;fontColor=#242424;" edge="1" parent="o612tRX_a-N4mE84uSn3-13" source="o612tRX_a-N4mE84uSn3-26">
          <mxGeometry relative="1" as="geometry">
            <mxPoint x="61.13746358987005" y="88.40172908662271" as="targetPoint" />
          </mxGeometry>
        </mxCell>
        <mxCell id="o612tRX_a-N4mE84uSn3-31" style="rounded=0;orthogonalLoop=1;jettySize=auto;html=1;exitX=0.5;exitY=1;exitDx=0;exitDy=0;entryX=0.5;entryY=0;entryDx=0;entryDy=0;dashed=1;endArrow=classicThin;endFill=1;movable=1;resizable=1;rotatable=1;deletable=1;editable=1;locked=0;connectable=1;fontColor=#242424;" edge="1" parent="o612tRX_a-N4mE84uSn3-13" source="o612tRX_a-N4mE84uSn3-27">
          <mxGeometry relative="1" as="geometry">
            <mxPoint x="104.57102845680475" y="88.40172908662271" as="targetPoint" />
          </mxGeometry>
        </mxCell>
        <mxCell id="o612tRX_a-N4mE84uSn3-32" style="rounded=0;orthogonalLoop=1;jettySize=auto;html=1;exitX=0.5;exitY=1;exitDx=0;exitDy=0;entryX=0.5;entryY=0;entryDx=0;entryDy=0;dashed=1;endArrow=classicThin;endFill=1;movable=1;resizable=1;rotatable=1;deletable=1;editable=1;locked=0;connectable=1;fontColor=#242424;" edge="1" parent="o612tRX_a-N4mE84uSn3-13" source="o612tRX_a-N4mE84uSn3-26">
          <mxGeometry relative="1" as="geometry">
            <mxPoint x="104.57102845680475" y="88.40172908662271" as="targetPoint" />
          </mxGeometry>
        </mxCell>
        <mxCell id="o612tRX_a-N4mE84uSn3-33" style="rounded=0;orthogonalLoop=1;jettySize=auto;html=1;exitX=0.5;exitY=1;exitDx=0;exitDy=0;entryX=0.5;entryY=0;entryDx=0;entryDy=0;dashed=1;endArrow=classicThin;endFill=1;movable=1;resizable=1;rotatable=1;deletable=1;editable=1;locked=0;connectable=1;fontColor=#242424;" edge="1" parent="o612tRX_a-N4mE84uSn3-13" source="o612tRX_a-N4mE84uSn3-25">
          <mxGeometry relative="1" as="geometry">
            <mxPoint x="104.57102845680475" y="88.40172908662271" as="targetPoint" />
          </mxGeometry>
        </mxCell>
        <mxCell id="o612tRX_a-N4mE84uSn3-34" value="" style="rounded=1;whiteSpace=wrap;html=1;fillColor=#F7F7F7;strokeColor=#CCCCCC;movable=1;resizable=1;rotatable=1;deletable=1;editable=1;locked=0;connectable=1;fontColor=#242424;container=0;shadow=1;" vertex="1" parent="o612tRX_a-N4mE84uSn3-13">
          <mxGeometry x="18.8841586377977" y="20" width="146.35222944293218" height="86.99999999999997" as="geometry" />
        </mxCell>
        <mxCell id="o612tRX_a-N4mE84uSn3-35" value="" style="ellipse;whiteSpace=wrap;html=1;fillColor=#E1D5E7;strokeColor=#A680B8;movable=1;resizable=1;rotatable=1;deletable=1;editable=1;locked=0;connectable=1;fontColor=#242424;container=0;" vertex="1" parent="o612tRX_a-N4mE84uSn3-13">
          <mxGeometry x="128.1762267540519" y="35.83765679725229" width="28.326237956696545" height="28.013763711658378" as="geometry" />
        </mxCell>
        <mxCell id="o612tRX_a-N4mE84uSn3-36" value="" style="ellipse;whiteSpace=wrap;html=1;fillColor=#E1D5E7;strokeColor=#A680B8;movable=1;resizable=1;rotatable=1;deletable=1;editable=1;locked=0;connectable=1;fontColor=#242424;container=0;" vertex="1" parent="o612tRX_a-N4mE84uSn3-13">
          <mxGeometry x="78.13320636388798" y="35.83765679725229" width="28.326237956696545" height="28.013763711658378" as="geometry" />
        </mxCell>
        <mxCell id="o612tRX_a-N4mE84uSn3-37" value="" style="ellipse;whiteSpace=wrap;html=1;fillColor=#E1D5E7;strokeColor=#A680B8;movable=1;resizable=1;rotatable=1;deletable=1;editable=1;locked=0;connectable=1;fontColor=#242424;container=0;" vertex="1" parent="o612tRX_a-N4mE84uSn3-13">
          <mxGeometry x="28.090185973724076" y="35.83765679725229" width="28.326237956696545" height="28.013763711658378" as="geometry" />
        </mxCell>
        <mxCell id="o612tRX_a-N4mE84uSn3-38" style="rounded=0;orthogonalLoop=1;jettySize=auto;html=1;exitX=0.5;exitY=1;exitDx=0;exitDy=0;entryX=0.5;entryY=0;entryDx=0;entryDy=0;dashed=1;endArrow=classicThin;endFill=1;movable=1;resizable=1;rotatable=1;deletable=1;editable=1;locked=0;connectable=1;fontColor=#242424;" edge="1" parent="o612tRX_a-N4mE84uSn3-13" source="o612tRX_a-N4mE84uSn3-37">
          <mxGeometry relative="1" as="geometry">
            <mxPoint x="70.5795429087689" y="98.40172908662271" as="targetPoint" />
          </mxGeometry>
        </mxCell>
        <mxCell id="o612tRX_a-N4mE84uSn3-39" style="rounded=0;orthogonalLoop=1;jettySize=auto;html=1;exitX=0.5;exitY=1;exitDx=0;exitDy=0;entryX=0.5;entryY=0;entryDx=0;entryDy=0;dashed=1;endArrow=classicThin;endFill=1;movable=1;resizable=1;rotatable=1;deletable=1;editable=1;locked=0;connectable=1;fontColor=#242424;" edge="1" parent="o612tRX_a-N4mE84uSn3-13" source="o612tRX_a-N4mE84uSn3-35">
          <mxGeometry relative="1" as="geometry">
            <mxPoint x="70.5795429087689" y="98.40172908662271" as="targetPoint" />
          </mxGeometry>
        </mxCell>
        <mxCell id="o612tRX_a-N4mE84uSn3-40" style="rounded=0;orthogonalLoop=1;jettySize=auto;html=1;exitX=0.5;exitY=1;exitDx=0;exitDy=0;entryX=0.5;entryY=0;entryDx=0;entryDy=0;dashed=1;endArrow=classicThin;endFill=1;movable=1;resizable=1;rotatable=1;deletable=1;editable=1;locked=0;connectable=1;fontColor=#242424;" edge="1" parent="o612tRX_a-N4mE84uSn3-13" source="o612tRX_a-N4mE84uSn3-36">
          <mxGeometry relative="1" as="geometry">
            <mxPoint x="70.5795429087689" y="98.40172908662271" as="targetPoint" />
          </mxGeometry>
        </mxCell>
        <mxCell id="o612tRX_a-N4mE84uSn3-41" style="rounded=0;orthogonalLoop=1;jettySize=auto;html=1;exitX=0.5;exitY=1;exitDx=0;exitDy=0;entryX=0.5;entryY=0;entryDx=0;entryDy=0;dashed=1;endArrow=classicThin;endFill=1;movable=1;resizable=1;rotatable=1;deletable=1;editable=1;locked=0;connectable=1;fontColor=#242424;" edge="1" parent="o612tRX_a-N4mE84uSn3-13" source="o612tRX_a-N4mE84uSn3-37">
          <mxGeometry relative="1" as="geometry">
            <mxPoint x="114.0131077757036" y="98.40172908662271" as="targetPoint" />
          </mxGeometry>
        </mxCell>
        <mxCell id="o612tRX_a-N4mE84uSn3-42" style="rounded=0;orthogonalLoop=1;jettySize=auto;html=1;exitX=0.5;exitY=1;exitDx=0;exitDy=0;entryX=0.5;entryY=0;entryDx=0;entryDy=0;dashed=1;endArrow=classicThin;endFill=1;movable=1;resizable=1;rotatable=1;deletable=1;editable=1;locked=0;connectable=1;fontColor=#242424;" edge="1" parent="o612tRX_a-N4mE84uSn3-13" source="o612tRX_a-N4mE84uSn3-36">
          <mxGeometry relative="1" as="geometry">
            <mxPoint x="114.0131077757036" y="98.40172908662271" as="targetPoint" />
          </mxGeometry>
        </mxCell>
        <mxCell id="o612tRX_a-N4mE84uSn3-43" style="rounded=0;orthogonalLoop=1;jettySize=auto;html=1;exitX=0.5;exitY=1;exitDx=0;exitDy=0;entryX=0.5;entryY=0;entryDx=0;entryDy=0;dashed=1;endArrow=classicThin;endFill=1;movable=1;resizable=1;rotatable=1;deletable=1;editable=1;locked=0;connectable=1;fontColor=#242424;" edge="1" parent="o612tRX_a-N4mE84uSn3-13" source="o612tRX_a-N4mE84uSn3-35">
          <mxGeometry relative="1" as="geometry">
            <mxPoint x="114.0131077757036" y="98.40172908662271" as="targetPoint" />
          </mxGeometry>
        </mxCell>
        <mxCell id="o612tRX_a-N4mE84uSn3-44" value="" style="rounded=1;whiteSpace=wrap;html=1;fillColor=#F7F7F7;strokeColor=#CCCCCC;movable=1;resizable=1;rotatable=1;deletable=1;editable=1;locked=0;connectable=1;fontColor=#242424;container=0;shadow=1;" vertex="1" parent="o612tRX_a-N4mE84uSn3-13">
          <mxGeometry x="28.32623795669655" y="30" width="146.35222944293218" height="86.99999999999997" as="geometry" />
        </mxCell>
        <mxCell id="o612tRX_a-N4mE84uSn3-45" value="" style="ellipse;whiteSpace=wrap;html=1;fillColor=#E1D5E7;strokeColor=#A680B8;movable=1;resizable=1;rotatable=1;deletable=1;editable=1;locked=0;connectable=1;fontColor=#242424;container=0;" vertex="1" parent="o612tRX_a-N4mE84uSn3-13">
          <mxGeometry x="137.61830607295073" y="45.83765679725229" width="28.326237956696545" height="28.013763711658378" as="geometry" />
        </mxCell>
        <mxCell id="o612tRX_a-N4mE84uSn3-46" value="" style="ellipse;whiteSpace=wrap;html=1;fillColor=#E1D5E7;strokeColor=#A680B8;movable=1;resizable=1;rotatable=1;deletable=1;editable=1;locked=0;connectable=1;fontColor=#242424;container=0;" vertex="1" parent="o612tRX_a-N4mE84uSn3-13">
          <mxGeometry x="87.57528568278683" y="45.83765679725229" width="28.326237956696545" height="28.013763711658378" as="geometry" />
        </mxCell>
        <mxCell id="o612tRX_a-N4mE84uSn3-47" value="" style="ellipse;whiteSpace=wrap;html=1;fillColor=#E1D5E7;strokeColor=#A680B8;movable=1;resizable=1;rotatable=1;deletable=1;editable=1;locked=0;connectable=1;fontColor=#242424;container=0;" vertex="1" parent="o612tRX_a-N4mE84uSn3-13">
          <mxGeometry x="37.532265292622924" y="45.83765679725229" width="28.326237956696545" height="28.013763711658378" as="geometry" />
        </mxCell>
        <mxCell id="o612tRX_a-N4mE84uSn3-48" style="rounded=0;orthogonalLoop=1;jettySize=auto;html=1;exitX=0.5;exitY=1;exitDx=0;exitDy=0;entryX=0.5;entryY=0;entryDx=0;entryDy=0;dashed=1;endArrow=classicThin;endFill=1;movable=1;resizable=1;rotatable=1;deletable=1;editable=1;locked=0;connectable=1;fontColor=#242424;" edge="1" parent="o612tRX_a-N4mE84uSn3-13" source="o612tRX_a-N4mE84uSn3-47">
          <mxGeometry relative="1" as="geometry">
            <mxPoint x="80.02162222766775" y="108.40172908662271" as="targetPoint" />
          </mxGeometry>
        </mxCell>
        <mxCell id="o612tRX_a-N4mE84uSn3-49" style="rounded=0;orthogonalLoop=1;jettySize=auto;html=1;exitX=0.5;exitY=1;exitDx=0;exitDy=0;entryX=0.5;entryY=0;entryDx=0;entryDy=0;dashed=1;endArrow=classicThin;endFill=1;movable=1;resizable=1;rotatable=1;deletable=1;editable=1;locked=0;connectable=1;fontColor=#242424;" edge="1" parent="o612tRX_a-N4mE84uSn3-13" source="o612tRX_a-N4mE84uSn3-45">
          <mxGeometry relative="1" as="geometry">
            <mxPoint x="80.02162222766775" y="108.40172908662271" as="targetPoint" />
          </mxGeometry>
        </mxCell>
        <mxCell id="o612tRX_a-N4mE84uSn3-50" style="rounded=0;orthogonalLoop=1;jettySize=auto;html=1;exitX=0.5;exitY=1;exitDx=0;exitDy=0;entryX=0.5;entryY=0;entryDx=0;entryDy=0;dashed=1;endArrow=classicThin;endFill=1;movable=1;resizable=1;rotatable=1;deletable=1;editable=1;locked=0;connectable=1;fontColor=#242424;" edge="1" parent="o612tRX_a-N4mE84uSn3-13" source="o612tRX_a-N4mE84uSn3-46">
          <mxGeometry relative="1" as="geometry">
            <mxPoint x="80.02162222766775" y="108.40172908662271" as="targetPoint" />
          </mxGeometry>
        </mxCell>
        <mxCell id="o612tRX_a-N4mE84uSn3-51" style="rounded=0;orthogonalLoop=1;jettySize=auto;html=1;exitX=0.5;exitY=1;exitDx=0;exitDy=0;entryX=0.5;entryY=0;entryDx=0;entryDy=0;dashed=1;endArrow=classicThin;endFill=1;movable=1;resizable=1;rotatable=1;deletable=1;editable=1;locked=0;connectable=1;fontColor=#242424;" edge="1" parent="o612tRX_a-N4mE84uSn3-13" source="o612tRX_a-N4mE84uSn3-47">
          <mxGeometry relative="1" as="geometry">
            <mxPoint x="123.45518709460245" y="108.40172908662271" as="targetPoint" />
          </mxGeometry>
        </mxCell>
        <mxCell id="o612tRX_a-N4mE84uSn3-52" style="rounded=0;orthogonalLoop=1;jettySize=auto;html=1;exitX=0.5;exitY=1;exitDx=0;exitDy=0;entryX=0.5;entryY=0;entryDx=0;entryDy=0;dashed=1;endArrow=classicThin;endFill=1;movable=1;resizable=1;rotatable=1;deletable=1;editable=1;locked=0;connectable=1;fontColor=#242424;" edge="1" parent="o612tRX_a-N4mE84uSn3-13" source="o612tRX_a-N4mE84uSn3-46">
          <mxGeometry relative="1" as="geometry">
            <mxPoint x="123.45518709460245" y="108.40172908662271" as="targetPoint" />
          </mxGeometry>
        </mxCell>
        <mxCell id="o612tRX_a-N4mE84uSn3-53" style="rounded=0;orthogonalLoop=1;jettySize=auto;html=1;exitX=0.5;exitY=1;exitDx=0;exitDy=0;entryX=0.5;entryY=0;entryDx=0;entryDy=0;dashed=1;endArrow=classicThin;endFill=1;movable=1;resizable=1;rotatable=1;deletable=1;editable=1;locked=0;connectable=1;fontColor=#242424;" edge="1" parent="o612tRX_a-N4mE84uSn3-13" source="o612tRX_a-N4mE84uSn3-45">
          <mxGeometry relative="1" as="geometry">
            <mxPoint x="123.45518709460245" y="108.40172908662271" as="targetPoint" />
          </mxGeometry>
        </mxCell>
        <mxCell id="o612tRX_a-N4mE84uSn3-54" value="$$j$$" style="text;html=1;align=center;verticalAlign=middle;resizable=0;points=[];autosize=1;strokeColor=none;fillColor=none;fontSize=18;fontFamily=Times New Roman;container=0;fontColor=#242424;" vertex="1" parent="o612tRX_a-N4mE84uSn3-13">
          <mxGeometry x="128.17173201849678" y="82.99894736842111" width="59" height="34" as="geometry" />
        </mxCell>
        <mxCell id="o612tRX_a-N4mE84uSn3-55" value="" style="group" vertex="1" connectable="0" parent="1">
          <mxGeometry x="131.50000000000003" y="-748" width="169.08999999999997" height="131.21000000000004" as="geometry" />
        </mxCell>
        <mxCell id="o612tRX_a-N4mE84uSn3-56" value="" style="group" vertex="1" connectable="0" parent="o612tRX_a-N4mE84uSn3-55">
          <mxGeometry width="155" height="131.21000000000004" as="geometry" />
        </mxCell>
        <mxCell id="o612tRX_a-N4mE84uSn3-57" value="" style="rounded=1;whiteSpace=wrap;html=1;fillColor=#F7F7F7;strokeColor=#CCCCCC;movable=1;resizable=1;rotatable=1;deletable=1;editable=1;locked=0;connectable=1;container=0;fontColor=#242424;shadow=1;" vertex="1" parent="o612tRX_a-N4mE84uSn3-56">
          <mxGeometry y="44.21" width="155" height="87" as="geometry" />
        </mxCell>
        <mxCell id="o612tRX_a-N4mE84uSn3-58" style="rounded=0;orthogonalLoop=1;jettySize=auto;html=1;exitX=0.5;exitY=1;exitDx=0;exitDy=0;entryX=0.5;entryY=0;entryDx=0;entryDy=0;dashed=1;endArrow=classicThin;endFill=1;movable=1;resizable=1;rotatable=1;deletable=1;editable=1;locked=0;connectable=1;fontColor=#242424;" edge="1" parent="o612tRX_a-N4mE84uSn3-56" target="o612tRX_a-N4mE84uSn3-64">
          <mxGeometry relative="1" as="geometry">
            <mxPoint x="24.75" y="56.32469763471613" as="sourcePoint" />
          </mxGeometry>
        </mxCell>
        <mxCell id="o612tRX_a-N4mE84uSn3-59" style="rounded=0;orthogonalLoop=1;jettySize=auto;html=1;exitX=0.5;exitY=1;exitDx=0;exitDy=0;entryX=0.5;entryY=0;entryDx=0;entryDy=0;dashed=1;endArrow=classicThin;endFill=1;movable=1;resizable=1;rotatable=1;deletable=1;editable=1;locked=0;connectable=1;fontColor=#242424;" edge="1" parent="o612tRX_a-N4mE84uSn3-56" target="o612tRX_a-N4mE84uSn3-65">
          <mxGeometry relative="1" as="geometry">
            <mxPoint x="24.75" y="56.32469763471613" as="sourcePoint" />
          </mxGeometry>
        </mxCell>
        <mxCell id="o612tRX_a-N4mE84uSn3-60" style="rounded=0;orthogonalLoop=1;jettySize=auto;html=1;exitX=0.5;exitY=1;exitDx=0;exitDy=0;entryX=0.5;entryY=0;entryDx=0;entryDy=0;dashed=1;endArrow=classicThin;endFill=1;movable=1;resizable=1;rotatable=1;deletable=1;editable=1;locked=0;connectable=1;fontColor=#242424;" edge="1" parent="o612tRX_a-N4mE84uSn3-56" target="o612tRX_a-N4mE84uSn3-64">
          <mxGeometry relative="1" as="geometry">
            <mxPoint x="77.75" y="56.32469763471613" as="sourcePoint" />
          </mxGeometry>
        </mxCell>
        <mxCell id="o612tRX_a-N4mE84uSn3-61" style="rounded=0;orthogonalLoop=1;jettySize=auto;html=1;exitX=0.5;exitY=1;exitDx=0;exitDy=0;entryX=0.5;entryY=0;entryDx=0;entryDy=0;dashed=1;endArrow=classicThin;endFill=1;movable=1;resizable=1;rotatable=1;deletable=1;editable=1;locked=0;connectable=1;fontColor=#242424;" edge="1" parent="o612tRX_a-N4mE84uSn3-56" target="o612tRX_a-N4mE84uSn3-65">
          <mxGeometry relative="1" as="geometry">
            <mxPoint x="77.75" y="56.32469763471613" as="sourcePoint" />
          </mxGeometry>
        </mxCell>
        <mxCell id="o612tRX_a-N4mE84uSn3-62" style="rounded=0;orthogonalLoop=1;jettySize=auto;html=1;exitX=0.5;exitY=1;exitDx=0;exitDy=0;entryX=0.5;entryY=0;entryDx=0;entryDy=0;dashed=1;endArrow=classicThin;endFill=1;movable=1;resizable=1;rotatable=1;deletable=1;editable=1;locked=0;connectable=1;fontColor=#242424;" edge="1" parent="o612tRX_a-N4mE84uSn3-56" target="o612tRX_a-N4mE84uSn3-64">
          <mxGeometry relative="1" as="geometry">
            <mxPoint x="130.75" y="56.32469763471613" as="sourcePoint" />
          </mxGeometry>
        </mxCell>
        <mxCell id="o612tRX_a-N4mE84uSn3-63" style="rounded=0;orthogonalLoop=1;jettySize=auto;html=1;exitX=0.5;exitY=1;exitDx=0;exitDy=0;entryX=0.5;entryY=0;entryDx=0;entryDy=0;dashed=1;endArrow=classicThin;endFill=1;movable=1;resizable=1;rotatable=1;deletable=1;editable=1;locked=0;connectable=1;fontColor=#242424;" edge="1" parent="o612tRX_a-N4mE84uSn3-56" target="o612tRX_a-N4mE84uSn3-65">
          <mxGeometry relative="1" as="geometry">
            <mxPoint x="130.75" y="56.32469763471613" as="sourcePoint" />
          </mxGeometry>
        </mxCell>
        <mxCell id="o612tRX_a-N4mE84uSn3-64" value="" style="ellipse;whiteSpace=wrap;html=1;fillColor=#CCE5FF;strokeColor=#66B2FF;movable=1;resizable=1;rotatable=1;deletable=1;editable=1;locked=0;connectable=1;container=0;fontColor=#242424;" vertex="1" parent="o612tRX_a-N4mE84uSn3-56">
          <mxGeometry x="39.75" y="92.8982258878712" width="30" height="29.654212097152623" as="geometry" />
        </mxCell>
        <mxCell id="o612tRX_a-N4mE84uSn3-65" value="" style="ellipse;whiteSpace=wrap;html=1;fillColor=#CCE5FF;strokeColor=#66B2FF;movable=1;resizable=1;rotatable=1;deletable=1;editable=1;locked=0;connectable=1;container=0;fontColor=#242424;" vertex="1" parent="o612tRX_a-N4mE84uSn3-56">
          <mxGeometry x="85.75" y="92.8982258878712" width="30" height="29.654212097152623" as="geometry" />
        </mxCell>
        <mxCell id="o612tRX_a-N4mE84uSn3-66" value="$$i$$" style="text;html=1;align=center;verticalAlign=middle;resizable=0;points=[];autosize=1;strokeColor=none;fillColor=none;fontSize=18;" vertex="1" parent="o612tRX_a-N4mE84uSn3-55">
          <mxGeometry x="107.08999999999997" y="97.21000000000004" width="62" height="34" as="geometry" />
        </mxCell>
        <mxCell id="o612tRX_a-N4mE84uSn3-67" style="edgeStyle=orthogonalEdgeStyle;rounded=0;orthogonalLoop=1;jettySize=auto;html=1;entryX=0.5;entryY=1;entryDx=0;entryDy=0;" edge="1" parent="1" source="o612tRX_a-N4mE84uSn3-112" target="o612tRX_a-N4mE84uSn3-9">
          <mxGeometry relative="1" as="geometry">
            <Array as="points">
              <mxPoint x="851" y="-580" />
              <mxPoint x="463" y="-580" />
            </Array>
          </mxGeometry>
        </mxCell>
        <mxCell id="o612tRX_a-N4mE84uSn3-68" value="" style="html=1;shadow=0;dashed=0;align=center;verticalAlign=middle;shape=mxgraph.arrows2.stylisedArrow;dy=0.76;dx=18.55;notch=7.74;feather=0.49;rotation=90;aspect=fixed;fillColor=#FFF2CC;strokeColor=#FFCE9F;fontColor=#242424;" vertex="1" parent="1">
          <mxGeometry x="161.51999999999998" y="-777.97" width="46.96" height="30.98" as="geometry" />
        </mxCell>
        <mxCell id="o612tRX_a-N4mE84uSn3-69" value="&lt;font face=&quot;Times New Roman&quot;&gt;模型参数聚合模块&lt;/font&gt;" style="text;html=1;align=center;verticalAlign=middle;resizable=0;points=[];autosize=1;strokeColor=none;fillColor=none;fontSize=24;fontFamily=Comic Sans MS;fontColor=#000000;fontStyle=1" vertex="1" parent="1">
          <mxGeometry x="423.5" y="-580" width="210" height="42" as="geometry" />
        </mxCell>
        <mxCell id="o612tRX_a-N4mE84uSn3-70" style="edgeStyle=orthogonalEdgeStyle;rounded=0;orthogonalLoop=1;jettySize=auto;html=1;entryX=1;entryY=0.5;entryDx=0;entryDy=0;exitX=0.5;exitY=0;exitDx=0;exitDy=0;" edge="1" parent="1" source="o612tRX_a-N4mE84uSn3-14" target="o612tRX_a-N4mE84uSn3-3">
          <mxGeometry relative="1" as="geometry" />
        </mxCell>
        <mxCell id="o612tRX_a-N4mE84uSn3-71" style="edgeStyle=orthogonalEdgeStyle;rounded=0;orthogonalLoop=1;jettySize=auto;html=1;exitX=0;exitY=1;exitDx=0;exitDy=0;entryX=0.75;entryY=0;entryDx=0;entryDy=0;dashed=1;dashPattern=8 8;" edge="1" parent="1">
          <mxGeometry relative="1" as="geometry">
            <mxPoint x="771.8262379566966" y="-765" as="sourcePoint" />
            <mxPoint x="483.2499999999998" y="-695" as="targetPoint" />
            <Array as="points">
              <mxPoint x="772" y="-762" />
              <mxPoint x="483" y="-762" />
            </Array>
          </mxGeometry>
        </mxCell>
        <mxCell id="o612tRX_a-N4mE84uSn3-72" value="" style="html=1;shadow=0;dashed=0;align=center;verticalAlign=middle;shape=mxgraph.arrows2.stylisedArrow;dy=0.76;dx=18.55;notch=7.74;feather=0.49;rotation=90;aspect=fixed;fillColor=#D4E1F5;strokeColor=#7EA6E0;fontColor=#242424;" vertex="1" parent="1">
          <mxGeometry x="622.02" y="-888.98" width="46.96" height="30.98" as="geometry" />
        </mxCell>
        <mxCell id="o612tRX_a-N4mE84uSn3-73" value="" style="html=1;shadow=0;dashed=0;align=center;verticalAlign=middle;shape=mxgraph.arrows2.stylisedArrow;dy=0.76;dx=18.55;notch=7.74;feather=0.49;rotation=90;aspect=fixed;fillColor=#D4E1F5;strokeColor=#7EA6E0;fontColor=#242424;" vertex="1" parent="1">
          <mxGeometry x="622.02" y="-748" width="46.96" height="30.98" as="geometry" />
        </mxCell>
        <mxCell id="o612tRX_a-N4mE84uSn3-74" value="" style="rounded=1;whiteSpace=wrap;html=1;fillColor=#F7F7F7;strokeColor=#CCCCCC;movable=1;resizable=1;rotatable=1;deletable=1;editable=1;locked=0;connectable=1;fontColor=#242424;textShadow=0;labelBorderColor=none;shadow=1;" vertex="1" parent="1">
          <mxGeometry x="366.35" y="-990.89" width="151.326578978552" height="87" as="geometry" />
        </mxCell>
        <mxCell id="o612tRX_a-N4mE84uSn3-75" style="rounded=0;orthogonalLoop=1;jettySize=auto;html=1;exitX=0.5;exitY=1;exitDx=0;exitDy=0;entryX=0.5;entryY=0;entryDx=0;entryDy=0;dashed=1;endArrow=classicThin;endFill=1;movable=1;resizable=1;rotatable=1;deletable=1;editable=1;locked=0;connectable=1;fontColor=#242424;" edge="1" parent="1" source="o612tRX_a-N4mE84uSn3-77">
          <mxGeometry relative="1" as="geometry">
            <mxPoint x="419.80245289726275" y="-912.9917741121288" as="targetPoint" />
          </mxGeometry>
        </mxCell>
        <mxCell id="o612tRX_a-N4mE84uSn3-76" style="rounded=0;orthogonalLoop=1;jettySize=auto;html=1;exitX=0.5;exitY=1;exitDx=0;exitDy=0;entryX=0.5;entryY=0;entryDx=0;entryDy=0;dashed=1;endArrow=classicThin;endFill=1;movable=1;resizable=1;rotatable=1;deletable=1;editable=1;locked=0;connectable=1;fontColor=#242424;" edge="1" parent="1" source="o612tRX_a-N4mE84uSn3-77">
          <mxGeometry relative="1" as="geometry">
            <mxPoint x="464.71227633605884" y="-912.9917741121288" as="targetPoint" />
          </mxGeometry>
        </mxCell>
        <mxCell id="o612tRX_a-N4mE84uSn3-77" value="" style="ellipse;whiteSpace=wrap;html=1;fillColor=#E1D5E7;strokeColor=#A680B8;movable=1;resizable=1;rotatable=1;deletable=1;editable=1;locked=0;connectable=1;fontColor=#242424;" vertex="1" parent="1">
          <mxGeometry x="375.8689299680057" y="-979.2195144624365" width="29.289015286171352" height="29.654212097152623" as="geometry" />
        </mxCell>
        <mxCell id="o612tRX_a-N4mE84uSn3-78" style="rounded=0;orthogonalLoop=1;jettySize=auto;html=1;exitX=0.5;exitY=1;exitDx=0;exitDy=0;entryX=0.5;entryY=0;entryDx=0;entryDy=0;dashed=1;endArrow=classicThin;endFill=1;movable=1;resizable=1;rotatable=1;deletable=1;editable=1;locked=0;connectable=1;fontColor=#242424;" edge="1" parent="1" source="o612tRX_a-N4mE84uSn3-80">
          <mxGeometry relative="1" as="geometry">
            <mxPoint x="419.80245289726275" y="-912.9917741121288" as="targetPoint" />
          </mxGeometry>
        </mxCell>
        <mxCell id="o612tRX_a-N4mE84uSn3-79" style="rounded=0;orthogonalLoop=1;jettySize=auto;html=1;exitX=0.5;exitY=1;exitDx=0;exitDy=0;entryX=0.5;entryY=0;entryDx=0;entryDy=0;dashed=1;endArrow=classicThin;endFill=1;movable=1;resizable=1;rotatable=1;deletable=1;editable=1;locked=0;connectable=1;fontColor=#242424;" edge="1" parent="1" source="o612tRX_a-N4mE84uSn3-80">
          <mxGeometry relative="1" as="geometry">
            <mxPoint x="464.71227633605884" y="-912.9917741121288" as="targetPoint" />
          </mxGeometry>
        </mxCell>
        <mxCell id="o612tRX_a-N4mE84uSn3-80" value="" style="ellipse;whiteSpace=wrap;html=1;fillColor=#E1D5E7;strokeColor=#A680B8;movable=1;resizable=1;rotatable=1;deletable=1;editable=1;locked=0;connectable=1;fontColor=#242424;" vertex="1" parent="1">
          <mxGeometry x="427.6128569735751" y="-979.2195144624365" width="29.289015286171352" height="29.654212097152623" as="geometry" />
        </mxCell>
        <mxCell id="o612tRX_a-N4mE84uSn3-81" style="rounded=0;orthogonalLoop=1;jettySize=auto;html=1;exitX=0.5;exitY=1;exitDx=0;exitDy=0;entryX=0.5;entryY=0;entryDx=0;entryDy=0;dashed=1;endArrow=classicThin;endFill=1;movable=1;resizable=1;rotatable=1;deletable=1;editable=1;locked=0;connectable=1;fontColor=#242424;" edge="1" parent="1" source="o612tRX_a-N4mE84uSn3-83">
          <mxGeometry relative="1" as="geometry">
            <mxPoint x="419.80245289726275" y="-912.9917741121288" as="targetPoint" />
          </mxGeometry>
        </mxCell>
        <mxCell id="o612tRX_a-N4mE84uSn3-82" style="rounded=0;orthogonalLoop=1;jettySize=auto;html=1;exitX=0.5;exitY=1;exitDx=0;exitDy=0;entryX=0.5;entryY=0;entryDx=0;entryDy=0;dashed=1;endArrow=classicThin;endFill=1;movable=1;resizable=1;rotatable=1;deletable=1;editable=1;locked=0;connectable=1;fontColor=#242424;" edge="1" parent="1" source="o612tRX_a-N4mE84uSn3-83">
          <mxGeometry relative="1" as="geometry">
            <mxPoint x="464.71227633605884" y="-912.9917741121288" as="targetPoint" />
          </mxGeometry>
        </mxCell>
        <mxCell id="o612tRX_a-N4mE84uSn3-83" value="" style="ellipse;whiteSpace=wrap;html=1;fillColor=#E1D5E7;strokeColor=#A680B8;movable=1;resizable=1;rotatable=1;deletable=1;editable=1;locked=0;connectable=1;fontColor=#242424;" vertex="1" parent="1">
          <mxGeometry x="479.35678397914455" y="-979.2195144624365" width="29.289015286171352" height="29.654212097152623" as="geometry" />
        </mxCell>
        <mxCell id="o612tRX_a-N4mE84uSn3-84" value="$$i$$" style="text;html=1;align=center;verticalAlign=middle;resizable=0;points=[];autosize=1;strokeColor=none;fillColor=none;fontSize=18;" vertex="1" parent="1">
          <mxGeometry x="470.59936840857927" y="-937.89" width="62" height="34" as="geometry" />
        </mxCell>
        <mxCell id="o612tRX_a-N4mE84uSn3-85" value="" style="rounded=1;whiteSpace=wrap;html=1;fillColor=#F7F7F7;strokeColor=#CCCCCC;movable=1;resizable=1;rotatable=1;deletable=1;editable=1;locked=0;connectable=1;fontColor=#242424;container=0;shadow=1;glass=0;" vertex="1" parent="1">
          <mxGeometry x="752.5" y="-727" width="136.05633802816902" height="83" as="geometry" />
        </mxCell>
        <mxCell id="o612tRX_a-N4mE84uSn3-86" style="rounded=0;orthogonalLoop=1;jettySize=auto;html=1;exitX=0.5;exitY=1;exitDx=0;exitDy=0;entryX=0.5;entryY=0;entryDx=0;entryDy=0;dashed=1;endArrow=classicThin;endFill=1;movable=1;resizable=1;rotatable=1;deletable=1;editable=1;locked=0;connectable=1;fontColor=#242424;" edge="1" parent="1" target="o612tRX_a-N4mE84uSn3-92">
          <mxGeometry relative="1" as="geometry">
            <mxPoint x="774.5339900614013" y="-710.3101560081186" as="sourcePoint" />
          </mxGeometry>
        </mxCell>
        <mxCell id="o612tRX_a-N4mE84uSn3-87" style="rounded=0;orthogonalLoop=1;jettySize=auto;html=1;exitX=0.5;exitY=1;exitDx=0;exitDy=0;entryX=0.5;entryY=0;entryDx=0;entryDy=0;dashed=1;endArrow=classicThin;endFill=1;movable=1;resizable=1;rotatable=1;deletable=1;editable=1;locked=0;connectable=1;fontColor=#242424;" edge="1" parent="1" target="o612tRX_a-N4mE84uSn3-93">
          <mxGeometry relative="1" as="geometry">
            <mxPoint x="774.5339900614013" y="-710.3101560081186" as="sourcePoint" />
          </mxGeometry>
        </mxCell>
        <mxCell id="o612tRX_a-N4mE84uSn3-88" style="rounded=0;orthogonalLoop=1;jettySize=auto;html=1;exitX=0.5;exitY=1;exitDx=0;exitDy=0;entryX=0.5;entryY=0;entryDx=0;entryDy=0;dashed=1;endArrow=classicThin;endFill=1;movable=1;resizable=1;rotatable=1;deletable=1;editable=1;locked=0;connectable=1;fontColor=#242424;" edge="1" parent="1" target="o612tRX_a-N4mE84uSn3-92">
          <mxGeometry relative="1" as="geometry">
            <mxPoint x="821.7210868355949" y="-710.3101560081186" as="sourcePoint" />
          </mxGeometry>
        </mxCell>
        <mxCell id="o612tRX_a-N4mE84uSn3-89" style="rounded=0;orthogonalLoop=1;jettySize=auto;html=1;exitX=0.5;exitY=1;exitDx=0;exitDy=0;entryX=0.5;entryY=0;entryDx=0;entryDy=0;dashed=1;endArrow=classicThin;endFill=1;movable=1;resizable=1;rotatable=1;deletable=1;editable=1;locked=0;connectable=1;fontColor=#242424;" edge="1" parent="1" target="o612tRX_a-N4mE84uSn3-93">
          <mxGeometry relative="1" as="geometry">
            <mxPoint x="821.7210868355949" y="-710.3101560081186" as="sourcePoint" />
          </mxGeometry>
        </mxCell>
        <mxCell id="o612tRX_a-N4mE84uSn3-90" style="rounded=0;orthogonalLoop=1;jettySize=auto;html=1;exitX=0.5;exitY=1;exitDx=0;exitDy=0;entryX=0.5;entryY=0;entryDx=0;entryDy=0;dashed=1;endArrow=classicThin;endFill=1;movable=1;resizable=1;rotatable=1;deletable=1;editable=1;locked=0;connectable=1;fontColor=#242424;" edge="1" parent="1" target="o612tRX_a-N4mE84uSn3-92">
          <mxGeometry relative="1" as="geometry">
            <mxPoint x="868.9081836097887" y="-710.3101560081186" as="sourcePoint" />
          </mxGeometry>
        </mxCell>
        <mxCell id="o612tRX_a-N4mE84uSn3-91" style="rounded=0;orthogonalLoop=1;jettySize=auto;html=1;exitX=0.5;exitY=1;exitDx=0;exitDy=0;entryX=0.5;entryY=0;entryDx=0;entryDy=0;dashed=1;endArrow=classicThin;endFill=1;movable=1;resizable=1;rotatable=1;deletable=1;editable=1;locked=0;connectable=1;fontColor=#242424;" edge="1" parent="1" target="o612tRX_a-N4mE84uSn3-93">
          <mxGeometry relative="1" as="geometry">
            <mxPoint x="868.9081836097887" y="-710.3101560081186" as="sourcePoint" />
          </mxGeometry>
        </mxCell>
        <mxCell id="o612tRX_a-N4mE84uSn3-92" value="" style="ellipse;whiteSpace=wrap;html=1;fillColor=#CCE5FF;strokeColor=#66B2FF;movable=1;resizable=1;rotatable=1;deletable=1;editable=1;locked=0;connectable=1;fontColor=#242424;container=0;" vertex="1" parent="1">
          <mxGeometry x="787.8888287710787" y="-677.9205212011937" width="26.70967741935485" height="26.261866059668748" as="geometry" />
        </mxCell>
        <mxCell id="o612tRX_a-N4mE84uSn3-93" value="" style="ellipse;whiteSpace=wrap;html=1;fillColor=#CCE5FF;strokeColor=#66B2FF;movable=1;resizable=1;rotatable=1;deletable=1;editable=1;locked=0;connectable=1;fontColor=#242424;container=0;" vertex="1" parent="1">
          <mxGeometry x="828.8436674807562" y="-677.9205212011937" width="26.70967741935485" height="26.261866059668748" as="geometry" />
        </mxCell>
        <mxCell id="o612tRX_a-N4mE84uSn3-94" value="" style="rounded=1;whiteSpace=wrap;html=1;fillColor=#F7F7F7;strokeColor=#CCCCCC;movable=1;resizable=1;rotatable=1;deletable=1;editable=1;locked=0;connectable=1;fontColor=#242424;container=0;shadow=1;glass=0;" vertex="1" parent="1">
          <mxGeometry x="762.5" y="-717" width="136.05633802816902" height="83" as="geometry" />
        </mxCell>
        <mxCell id="o612tRX_a-N4mE84uSn3-95" style="rounded=0;orthogonalLoop=1;jettySize=auto;html=1;exitX=0.5;exitY=1;exitDx=0;exitDy=0;entryX=0.5;entryY=0;entryDx=0;entryDy=0;dashed=1;endArrow=classicThin;endFill=1;movable=1;resizable=1;rotatable=1;deletable=1;editable=1;locked=0;connectable=1;fontColor=#242424;" edge="1" parent="1" target="o612tRX_a-N4mE84uSn3-101">
          <mxGeometry relative="1" as="geometry">
            <mxPoint x="784.5339900614013" y="-700.3101560081186" as="sourcePoint" />
          </mxGeometry>
        </mxCell>
        <mxCell id="o612tRX_a-N4mE84uSn3-96" style="rounded=0;orthogonalLoop=1;jettySize=auto;html=1;exitX=0.5;exitY=1;exitDx=0;exitDy=0;entryX=0.5;entryY=0;entryDx=0;entryDy=0;dashed=1;endArrow=classicThin;endFill=1;movable=1;resizable=1;rotatable=1;deletable=1;editable=1;locked=0;connectable=1;fontColor=#242424;" edge="1" parent="1" target="o612tRX_a-N4mE84uSn3-102">
          <mxGeometry relative="1" as="geometry">
            <mxPoint x="784.5339900614013" y="-700.3101560081186" as="sourcePoint" />
          </mxGeometry>
        </mxCell>
        <mxCell id="o612tRX_a-N4mE84uSn3-97" style="rounded=0;orthogonalLoop=1;jettySize=auto;html=1;exitX=0.5;exitY=1;exitDx=0;exitDy=0;entryX=0.5;entryY=0;entryDx=0;entryDy=0;dashed=1;endArrow=classicThin;endFill=1;movable=1;resizable=1;rotatable=1;deletable=1;editable=1;locked=0;connectable=1;fontColor=#242424;" edge="1" parent="1" target="o612tRX_a-N4mE84uSn3-101">
          <mxGeometry relative="1" as="geometry">
            <mxPoint x="831.7210868355949" y="-700.3101560081186" as="sourcePoint" />
          </mxGeometry>
        </mxCell>
        <mxCell id="o612tRX_a-N4mE84uSn3-98" style="rounded=0;orthogonalLoop=1;jettySize=auto;html=1;exitX=0.5;exitY=1;exitDx=0;exitDy=0;entryX=0.5;entryY=0;entryDx=0;entryDy=0;dashed=1;endArrow=classicThin;endFill=1;movable=1;resizable=1;rotatable=1;deletable=1;editable=1;locked=0;connectable=1;fontColor=#242424;" edge="1" parent="1" target="o612tRX_a-N4mE84uSn3-102">
          <mxGeometry relative="1" as="geometry">
            <mxPoint x="831.7210868355949" y="-700.3101560081186" as="sourcePoint" />
          </mxGeometry>
        </mxCell>
        <mxCell id="o612tRX_a-N4mE84uSn3-99" style="rounded=0;orthogonalLoop=1;jettySize=auto;html=1;exitX=0.5;exitY=1;exitDx=0;exitDy=0;entryX=0.5;entryY=0;entryDx=0;entryDy=0;dashed=1;endArrow=classicThin;endFill=1;movable=1;resizable=1;rotatable=1;deletable=1;editable=1;locked=0;connectable=1;fontColor=#242424;" edge="1" parent="1" target="o612tRX_a-N4mE84uSn3-101">
          <mxGeometry relative="1" as="geometry">
            <mxPoint x="878.9081836097887" y="-700.3101560081186" as="sourcePoint" />
          </mxGeometry>
        </mxCell>
        <mxCell id="o612tRX_a-N4mE84uSn3-100" style="rounded=0;orthogonalLoop=1;jettySize=auto;html=1;exitX=0.5;exitY=1;exitDx=0;exitDy=0;entryX=0.5;entryY=0;entryDx=0;entryDy=0;dashed=1;endArrow=classicThin;endFill=1;movable=1;resizable=1;rotatable=1;deletable=1;editable=1;locked=0;connectable=1;fontColor=#242424;" edge="1" parent="1" target="o612tRX_a-N4mE84uSn3-102">
          <mxGeometry relative="1" as="geometry">
            <mxPoint x="878.9081836097887" y="-700.3101560081186" as="sourcePoint" />
          </mxGeometry>
        </mxCell>
        <mxCell id="o612tRX_a-N4mE84uSn3-101" value="" style="ellipse;whiteSpace=wrap;html=1;fillColor=#CCE5FF;strokeColor=#66B2FF;movable=1;resizable=1;rotatable=1;deletable=1;editable=1;locked=0;connectable=1;fontColor=#242424;container=0;" vertex="1" parent="1">
          <mxGeometry x="797.8888287710787" y="-667.9205212011937" width="26.70967741935485" height="26.261866059668748" as="geometry" />
        </mxCell>
        <mxCell id="o612tRX_a-N4mE84uSn3-102" value="" style="ellipse;whiteSpace=wrap;html=1;fillColor=#CCE5FF;strokeColor=#66B2FF;movable=1;resizable=1;rotatable=1;deletable=1;editable=1;locked=0;connectable=1;fontColor=#242424;container=0;" vertex="1" parent="1">
          <mxGeometry x="838.8436674807562" y="-667.9205212011937" width="26.70967741935485" height="26.261866059668748" as="geometry" />
        </mxCell>
        <mxCell id="o612tRX_a-N4mE84uSn3-103" value="" style="rounded=1;whiteSpace=wrap;html=1;fillColor=#F7F7F7;strokeColor=#CCCCCC;movable=1;resizable=1;rotatable=1;deletable=1;editable=1;locked=0;connectable=1;fontColor=#242424;container=0;shadow=1;glass=0;" vertex="1" parent="1">
          <mxGeometry x="772.5" y="-707" width="136.05633802816902" height="83" as="geometry" />
        </mxCell>
        <mxCell id="o612tRX_a-N4mE84uSn3-104" style="rounded=0;orthogonalLoop=1;jettySize=auto;html=1;exitX=0.5;exitY=1;exitDx=0;exitDy=0;entryX=0.5;entryY=0;entryDx=0;entryDy=0;dashed=1;endArrow=classicThin;endFill=1;movable=1;resizable=1;rotatable=1;deletable=1;editable=1;locked=0;connectable=1;fontColor=#242424;" edge="1" parent="1" target="o612tRX_a-N4mE84uSn3-110">
          <mxGeometry relative="1" as="geometry">
            <mxPoint x="794.5339900614013" y="-690.3101560081186" as="sourcePoint" />
          </mxGeometry>
        </mxCell>
        <mxCell id="o612tRX_a-N4mE84uSn3-105" style="rounded=0;orthogonalLoop=1;jettySize=auto;html=1;exitX=0.5;exitY=1;exitDx=0;exitDy=0;entryX=0.5;entryY=0;entryDx=0;entryDy=0;dashed=1;endArrow=classicThin;endFill=1;movable=1;resizable=1;rotatable=1;deletable=1;editable=1;locked=0;connectable=1;fontColor=#242424;" edge="1" parent="1" target="o612tRX_a-N4mE84uSn3-111">
          <mxGeometry relative="1" as="geometry">
            <mxPoint x="794.5339900614013" y="-690.3101560081186" as="sourcePoint" />
          </mxGeometry>
        </mxCell>
        <mxCell id="o612tRX_a-N4mE84uSn3-106" style="rounded=0;orthogonalLoop=1;jettySize=auto;html=1;exitX=0.5;exitY=1;exitDx=0;exitDy=0;entryX=0.5;entryY=0;entryDx=0;entryDy=0;dashed=1;endArrow=classicThin;endFill=1;movable=1;resizable=1;rotatable=1;deletable=1;editable=1;locked=0;connectable=1;fontColor=#242424;" edge="1" parent="1" target="o612tRX_a-N4mE84uSn3-110">
          <mxGeometry relative="1" as="geometry">
            <mxPoint x="841.7210868355949" y="-690.3101560081186" as="sourcePoint" />
          </mxGeometry>
        </mxCell>
        <mxCell id="o612tRX_a-N4mE84uSn3-107" style="rounded=0;orthogonalLoop=1;jettySize=auto;html=1;exitX=0.5;exitY=1;exitDx=0;exitDy=0;entryX=0.5;entryY=0;entryDx=0;entryDy=0;dashed=1;endArrow=classicThin;endFill=1;movable=1;resizable=1;rotatable=1;deletable=1;editable=1;locked=0;connectable=1;fontColor=#242424;" edge="1" parent="1" target="o612tRX_a-N4mE84uSn3-111">
          <mxGeometry relative="1" as="geometry">
            <mxPoint x="841.7210868355949" y="-690.3101560081186" as="sourcePoint" />
          </mxGeometry>
        </mxCell>
        <mxCell id="o612tRX_a-N4mE84uSn3-108" style="rounded=0;orthogonalLoop=1;jettySize=auto;html=1;exitX=0.5;exitY=1;exitDx=0;exitDy=0;entryX=0.5;entryY=0;entryDx=0;entryDy=0;dashed=1;endArrow=classicThin;endFill=1;movable=1;resizable=1;rotatable=1;deletable=1;editable=1;locked=0;connectable=1;fontColor=#242424;" edge="1" parent="1" target="o612tRX_a-N4mE84uSn3-110">
          <mxGeometry relative="1" as="geometry">
            <mxPoint x="888.9081836097887" y="-690.3101560081186" as="sourcePoint" />
          </mxGeometry>
        </mxCell>
        <mxCell id="o612tRX_a-N4mE84uSn3-109" style="rounded=0;orthogonalLoop=1;jettySize=auto;html=1;exitX=0.5;exitY=1;exitDx=0;exitDy=0;entryX=0.5;entryY=0;entryDx=0;entryDy=0;dashed=1;endArrow=classicThin;endFill=1;movable=1;resizable=1;rotatable=1;deletable=1;editable=1;locked=0;connectable=1;fontColor=#242424;" edge="1" parent="1" target="o612tRX_a-N4mE84uSn3-111">
          <mxGeometry relative="1" as="geometry">
            <mxPoint x="888.9081836097887" y="-690.3101560081186" as="sourcePoint" />
          </mxGeometry>
        </mxCell>
        <mxCell id="o612tRX_a-N4mE84uSn3-110" value="" style="ellipse;whiteSpace=wrap;html=1;fillColor=#CCE5FF;strokeColor=#66B2FF;movable=1;resizable=1;rotatable=1;deletable=1;editable=1;locked=0;connectable=1;fontColor=#242424;container=0;" vertex="1" parent="1">
          <mxGeometry x="807.8888287710787" y="-657.9205212011937" width="26.70967741935485" height="26.261866059668748" as="geometry" />
        </mxCell>
        <mxCell id="o612tRX_a-N4mE84uSn3-111" value="" style="ellipse;whiteSpace=wrap;html=1;fillColor=#CCE5FF;strokeColor=#66B2FF;movable=1;resizable=1;rotatable=1;deletable=1;editable=1;locked=0;connectable=1;fontColor=#242424;container=0;" vertex="1" parent="1">
          <mxGeometry x="848.8436674807562" y="-657.9205212011937" width="26.70967741935485" height="26.261866059668748" as="geometry" />
        </mxCell>
        <mxCell id="o612tRX_a-N4mE84uSn3-112" value="" style="rounded=1;whiteSpace=wrap;html=1;fillColor=#F7F7F7;strokeColor=#CCCCCC;movable=1;resizable=1;rotatable=1;deletable=1;editable=1;locked=0;connectable=1;fontColor=#242424;container=0;shadow=1;glass=0;" vertex="1" parent="1">
          <mxGeometry x="782.5" y="-697" width="136.05633802816902" height="83" as="geometry" />
        </mxCell>
        <mxCell id="o612tRX_a-N4mE84uSn3-113" style="rounded=0;orthogonalLoop=1;jettySize=auto;html=1;exitX=0.5;exitY=1;exitDx=0;exitDy=0;entryX=0.5;entryY=0;entryDx=0;entryDy=0;dashed=1;endArrow=classicThin;endFill=1;movable=1;resizable=1;rotatable=1;deletable=1;editable=1;locked=0;connectable=1;fontColor=#242424;" edge="1" parent="1" target="o612tRX_a-N4mE84uSn3-119">
          <mxGeometry relative="1" as="geometry">
            <mxPoint x="804.5339900614013" y="-680.3101560081186" as="sourcePoint" />
          </mxGeometry>
        </mxCell>
        <mxCell id="o612tRX_a-N4mE84uSn3-114" style="rounded=0;orthogonalLoop=1;jettySize=auto;html=1;exitX=0.5;exitY=1;exitDx=0;exitDy=0;entryX=0.5;entryY=0;entryDx=0;entryDy=0;dashed=1;endArrow=classicThin;endFill=1;movable=1;resizable=1;rotatable=1;deletable=1;editable=1;locked=0;connectable=1;fontColor=#242424;" edge="1" parent="1" target="o612tRX_a-N4mE84uSn3-120">
          <mxGeometry relative="1" as="geometry">
            <mxPoint x="804.5339900614013" y="-680.3101560081186" as="sourcePoint" />
          </mxGeometry>
        </mxCell>
        <mxCell id="o612tRX_a-N4mE84uSn3-115" style="rounded=0;orthogonalLoop=1;jettySize=auto;html=1;exitX=0.5;exitY=1;exitDx=0;exitDy=0;entryX=0.5;entryY=0;entryDx=0;entryDy=0;dashed=1;endArrow=classicThin;endFill=1;movable=1;resizable=1;rotatable=1;deletable=1;editable=1;locked=0;connectable=1;fontColor=#242424;" edge="1" parent="1" target="o612tRX_a-N4mE84uSn3-119">
          <mxGeometry relative="1" as="geometry">
            <mxPoint x="851.7210868355949" y="-680.3101560081186" as="sourcePoint" />
          </mxGeometry>
        </mxCell>
        <mxCell id="o612tRX_a-N4mE84uSn3-116" style="rounded=0;orthogonalLoop=1;jettySize=auto;html=1;exitX=0.5;exitY=1;exitDx=0;exitDy=0;entryX=0.5;entryY=0;entryDx=0;entryDy=0;dashed=1;endArrow=classicThin;endFill=1;movable=1;resizable=1;rotatable=1;deletable=1;editable=1;locked=0;connectable=1;fontColor=#242424;" edge="1" parent="1" target="o612tRX_a-N4mE84uSn3-120">
          <mxGeometry relative="1" as="geometry">
            <mxPoint x="851.7210868355949" y="-680.3101560081186" as="sourcePoint" />
          </mxGeometry>
        </mxCell>
        <mxCell id="o612tRX_a-N4mE84uSn3-117" style="rounded=0;orthogonalLoop=1;jettySize=auto;html=1;exitX=0.5;exitY=1;exitDx=0;exitDy=0;entryX=0.5;entryY=0;entryDx=0;entryDy=0;dashed=1;endArrow=classicThin;endFill=1;movable=1;resizable=1;rotatable=1;deletable=1;editable=1;locked=0;connectable=1;fontColor=#242424;" edge="1" parent="1" target="o612tRX_a-N4mE84uSn3-119">
          <mxGeometry relative="1" as="geometry">
            <mxPoint x="898.9081836097887" y="-680.3101560081186" as="sourcePoint" />
          </mxGeometry>
        </mxCell>
        <mxCell id="o612tRX_a-N4mE84uSn3-118" style="rounded=0;orthogonalLoop=1;jettySize=auto;html=1;exitX=0.5;exitY=1;exitDx=0;exitDy=0;entryX=0.5;entryY=0;entryDx=0;entryDy=0;dashed=1;endArrow=classicThin;endFill=1;movable=1;resizable=1;rotatable=1;deletable=1;editable=1;locked=0;connectable=1;fontColor=#242424;" edge="1" parent="1" target="o612tRX_a-N4mE84uSn3-120">
          <mxGeometry relative="1" as="geometry">
            <mxPoint x="898.9081836097887" y="-680.3101560081186" as="sourcePoint" />
          </mxGeometry>
        </mxCell>
        <mxCell id="o612tRX_a-N4mE84uSn3-119" value="" style="ellipse;whiteSpace=wrap;html=1;fillColor=#CCE5FF;strokeColor=#66B2FF;movable=1;resizable=1;rotatable=1;deletable=1;editable=1;locked=0;connectable=1;fontColor=#242424;container=0;" vertex="1" parent="1">
          <mxGeometry x="817.8888287710787" y="-647.9205212011937" width="26.70967741935485" height="26.261866059668748" as="geometry" />
        </mxCell>
        <mxCell id="o612tRX_a-N4mE84uSn3-120" value="" style="ellipse;whiteSpace=wrap;html=1;fillColor=#CCE5FF;strokeColor=#66B2FF;movable=1;resizable=1;rotatable=1;deletable=1;editable=1;locked=0;connectable=1;fontColor=#242424;container=0;" vertex="1" parent="1">
          <mxGeometry x="858.8436674807562" y="-647.9205212011937" width="26.70967741935485" height="26.261866059668748" as="geometry" />
        </mxCell>
        <mxCell id="o612tRX_a-N4mE84uSn3-121" value="$$j$$" style="text;html=1;align=center;verticalAlign=middle;resizable=0;points=[];autosize=1;strokeColor=none;fillColor=none;fontSize=18;fontFamily=Times New Roman;container=0;fontColor=#242424;" vertex="1" parent="1">
          <mxGeometry x="874.5" y="-647.92" width="59" height="34" as="geometry" />
        </mxCell>
        <mxCell id="o612tRX_a-N4mE84uSn3-122" value="" style="rounded=1;whiteSpace=wrap;html=1;fillColor=#F7F7F7;strokeColor=#CCCCCC;movable=1;resizable=1;rotatable=1;deletable=1;editable=1;locked=0;connectable=1;fontColor=#242424;container=0;shadow=1;" vertex="1" parent="1">
          <mxGeometry x="107.5" y="-958.9908326081652" width="155" height="153.21342916862187" as="geometry" />
        </mxCell>
        <mxCell id="o612tRX_a-N4mE84uSn3-123" style="rounded=0;orthogonalLoop=1;jettySize=auto;html=1;exitX=0.5;exitY=1;exitDx=0;exitDy=0;entryX=0.5;entryY=0;entryDx=0;entryDy=0;dashed=1;endArrow=classicThin;endFill=1;movable=1;resizable=1;rotatable=1;deletable=1;editable=1;locked=0;connectable=1;fontColor=#242424;" edge="1" parent="1" source="o612tRX_a-N4mE84uSn3-125" target="o612tRX_a-N4mE84uSn3-132">
          <mxGeometry relative="1" as="geometry" />
        </mxCell>
        <mxCell id="o612tRX_a-N4mE84uSn3-124" style="rounded=0;orthogonalLoop=1;jettySize=auto;html=1;exitX=0.5;exitY=1;exitDx=0;exitDy=0;entryX=0.5;entryY=0;entryDx=0;entryDy=0;dashed=1;endArrow=classicThin;endFill=1;movable=1;resizable=1;rotatable=1;deletable=1;editable=1;locked=0;connectable=1;fontColor=#242424;" edge="1" parent="1" source="o612tRX_a-N4mE84uSn3-125" target="o612tRX_a-N4mE84uSn3-133">
          <mxGeometry relative="1" as="geometry" />
        </mxCell>
        <mxCell id="o612tRX_a-N4mE84uSn3-125" value="" style="ellipse;whiteSpace=wrap;html=1;fillColor=#E1D5E7;strokeColor=#A680B8;movable=1;resizable=1;rotatable=1;deletable=1;editable=1;locked=0;connectable=1;fontColor=#242424;container=0;" vertex="1" parent="1">
          <mxGeometry x="117.25" y="-910.3195144624364" width="30" height="29.654212097152623" as="geometry" />
        </mxCell>
        <mxCell id="o612tRX_a-N4mE84uSn3-126" style="rounded=0;orthogonalLoop=1;jettySize=auto;html=1;exitX=0.5;exitY=1;exitDx=0;exitDy=0;entryX=0.5;entryY=0;entryDx=0;entryDy=0;dashed=1;endArrow=classicThin;endFill=1;movable=1;resizable=1;rotatable=1;deletable=1;editable=1;locked=0;connectable=1;fontColor=#242424;" edge="1" parent="1" source="o612tRX_a-N4mE84uSn3-128" target="o612tRX_a-N4mE84uSn3-132">
          <mxGeometry relative="1" as="geometry" />
        </mxCell>
        <mxCell id="o612tRX_a-N4mE84uSn3-127" style="rounded=0;orthogonalLoop=1;jettySize=auto;html=1;exitX=0.5;exitY=1;exitDx=0;exitDy=0;entryX=0.5;entryY=0;entryDx=0;entryDy=0;dashed=1;endArrow=classicThin;endFill=1;movable=1;resizable=1;rotatable=1;deletable=1;editable=1;locked=0;connectable=1;fontColor=#242424;" edge="1" parent="1" source="o612tRX_a-N4mE84uSn3-128" target="o612tRX_a-N4mE84uSn3-133">
          <mxGeometry relative="1" as="geometry" />
        </mxCell>
        <mxCell id="o612tRX_a-N4mE84uSn3-128" value="" style="ellipse;whiteSpace=wrap;html=1;fillColor=#E1D5E7;strokeColor=#A680B8;movable=1;resizable=1;rotatable=1;deletable=1;editable=1;locked=0;connectable=1;fontColor=#242424;container=0;" vertex="1" parent="1">
          <mxGeometry x="170.25" y="-910.3195144624364" width="30" height="29.654212097152623" as="geometry" />
        </mxCell>
        <mxCell id="o612tRX_a-N4mE84uSn3-129" style="rounded=0;orthogonalLoop=1;jettySize=auto;html=1;exitX=0.5;exitY=1;exitDx=0;exitDy=0;entryX=0.5;entryY=0;entryDx=0;entryDy=0;dashed=1;endArrow=classicThin;endFill=1;movable=1;resizable=1;rotatable=1;deletable=1;editable=1;locked=0;connectable=1;fontColor=#242424;" edge="1" parent="1" source="o612tRX_a-N4mE84uSn3-131" target="o612tRX_a-N4mE84uSn3-132">
          <mxGeometry relative="1" as="geometry" />
        </mxCell>
        <mxCell id="o612tRX_a-N4mE84uSn3-130" style="rounded=0;orthogonalLoop=1;jettySize=auto;html=1;exitX=0.5;exitY=1;exitDx=0;exitDy=0;entryX=0.5;entryY=0;entryDx=0;entryDy=0;dashed=1;endArrow=classicThin;endFill=1;movable=1;resizable=1;rotatable=1;deletable=1;editable=1;locked=0;connectable=1;fontColor=#242424;" edge="1" parent="1" source="o612tRX_a-N4mE84uSn3-131" target="o612tRX_a-N4mE84uSn3-133">
          <mxGeometry relative="1" as="geometry" />
        </mxCell>
        <mxCell id="o612tRX_a-N4mE84uSn3-131" value="" style="ellipse;whiteSpace=wrap;html=1;fillColor=#E1D5E7;strokeColor=#A680B8;movable=1;resizable=1;rotatable=1;deletable=1;editable=1;locked=0;connectable=1;fontColor=#242424;container=0;" vertex="1" parent="1">
          <mxGeometry x="223.25" y="-910.3195144624364" width="30" height="29.654212097152623" as="geometry" />
        </mxCell>
        <mxCell id="o612tRX_a-N4mE84uSn3-132" value="" style="ellipse;whiteSpace=wrap;html=1;fillColor=#CCE5FF;strokeColor=#66B2FF;movable=1;resizable=1;rotatable=1;deletable=1;editable=1;locked=0;connectable=1;fontColor=#242424;container=0;" vertex="1" parent="1">
          <mxGeometry x="147.25" y="-844.0917741121289" width="30" height="29.654212097152623" as="geometry" />
        </mxCell>
        <mxCell id="o612tRX_a-N4mE84uSn3-133" value="" style="ellipse;whiteSpace=wrap;html=1;fillColor=#CCE5FF;strokeColor=#66B2FF;movable=1;resizable=1;rotatable=1;deletable=1;editable=1;locked=0;connectable=1;fontColor=#242424;container=0;" vertex="1" parent="1">
          <mxGeometry x="193.25" y="-844.0917741121289" width="30" height="29.654212097152623" as="geometry" />
        </mxCell>
        <mxCell id="o612tRX_a-N4mE84uSn3-134" value="本地模型" style="text;html=1;align=center;verticalAlign=middle;resizable=0;points=[];autosize=1;strokeColor=none;fillColor=none;fontSize=24;fontFamily=Times New Roman;container=0;fontColor=#242424;" vertex="1" parent="1">
          <mxGeometry x="128.75" y="-954.2" width="114" height="41" as="geometry" />
        </mxCell>
        <mxCell id="o612tRX_a-N4mE84uSn3-135" value="" style="group;fillColor=none;" vertex="1" connectable="0" parent="1">
          <mxGeometry x="978.5" y="-816.0008326081652" width="155" height="153.21342916862187" as="geometry" />
        </mxCell>
        <mxCell id="o612tRX_a-N4mE84uSn3-136" value="" style="rounded=1;whiteSpace=wrap;html=1;fillColor=#F7F7F7;strokeColor=#CCCCCC;movable=1;resizable=1;rotatable=1;deletable=1;editable=1;locked=0;connectable=1;fontColor=#242424;container=0;shadow=1;" vertex="1" parent="o612tRX_a-N4mE84uSn3-135">
          <mxGeometry width="155" height="153.21342916862187" as="geometry" />
        </mxCell>
        <mxCell id="o612tRX_a-N4mE84uSn3-137" style="rounded=0;orthogonalLoop=1;jettySize=auto;html=1;exitX=0.5;exitY=1;exitDx=0;exitDy=0;entryX=0.5;entryY=0;entryDx=0;entryDy=0;dashed=1;endArrow=classicThin;endFill=1;movable=1;resizable=1;rotatable=1;deletable=1;editable=1;locked=0;connectable=1;fontColor=#242424;" edge="1" parent="o612tRX_a-N4mE84uSn3-135" source="o612tRX_a-N4mE84uSn3-139" target="o612tRX_a-N4mE84uSn3-146">
          <mxGeometry relative="1" as="geometry" />
        </mxCell>
        <mxCell id="o612tRX_a-N4mE84uSn3-138" style="rounded=0;orthogonalLoop=1;jettySize=auto;html=1;exitX=0.5;exitY=1;exitDx=0;exitDy=0;entryX=0.5;entryY=0;entryDx=0;entryDy=0;dashed=1;endArrow=classicThin;endFill=1;movable=1;resizable=1;rotatable=1;deletable=1;editable=1;locked=0;connectable=1;fontColor=#242424;" edge="1" parent="o612tRX_a-N4mE84uSn3-135" source="o612tRX_a-N4mE84uSn3-139" target="o612tRX_a-N4mE84uSn3-147">
          <mxGeometry relative="1" as="geometry" />
        </mxCell>
        <mxCell id="o612tRX_a-N4mE84uSn3-139" value="" style="ellipse;whiteSpace=wrap;html=1;fillColor=#E1D5E7;strokeColor=#A680B8;movable=1;resizable=1;rotatable=1;deletable=1;editable=1;locked=0;connectable=1;fontColor=#242424;container=0;" vertex="1" parent="o612tRX_a-N4mE84uSn3-135">
          <mxGeometry x="9.75" y="48.67131814572889" width="30" height="29.654212097152623" as="geometry" />
        </mxCell>
        <mxCell id="o612tRX_a-N4mE84uSn3-140" style="rounded=0;orthogonalLoop=1;jettySize=auto;html=1;exitX=0.5;exitY=1;exitDx=0;exitDy=0;entryX=0.5;entryY=0;entryDx=0;entryDy=0;dashed=1;endArrow=classicThin;endFill=1;movable=1;resizable=1;rotatable=1;deletable=1;editable=1;locked=0;connectable=1;fontColor=#242424;" edge="1" parent="o612tRX_a-N4mE84uSn3-135" source="o612tRX_a-N4mE84uSn3-142" target="o612tRX_a-N4mE84uSn3-146">
          <mxGeometry relative="1" as="geometry" />
        </mxCell>
        <mxCell id="o612tRX_a-N4mE84uSn3-141" style="rounded=0;orthogonalLoop=1;jettySize=auto;html=1;exitX=0.5;exitY=1;exitDx=0;exitDy=0;entryX=0.5;entryY=0;entryDx=0;entryDy=0;dashed=1;endArrow=classicThin;endFill=1;movable=1;resizable=1;rotatable=1;deletable=1;editable=1;locked=0;connectable=1;fontColor=#242424;" edge="1" parent="o612tRX_a-N4mE84uSn3-135" source="o612tRX_a-N4mE84uSn3-142" target="o612tRX_a-N4mE84uSn3-147">
          <mxGeometry relative="1" as="geometry" />
        </mxCell>
        <mxCell id="o612tRX_a-N4mE84uSn3-142" value="" style="ellipse;whiteSpace=wrap;html=1;fillColor=#E1D5E7;strokeColor=#A680B8;movable=1;resizable=1;rotatable=1;deletable=1;editable=1;locked=0;connectable=1;fontColor=#242424;container=0;" vertex="1" parent="o612tRX_a-N4mE84uSn3-135">
          <mxGeometry x="62.75" y="48.67131814572889" width="30" height="29.654212097152623" as="geometry" />
        </mxCell>
        <mxCell id="o612tRX_a-N4mE84uSn3-143" style="rounded=0;orthogonalLoop=1;jettySize=auto;html=1;exitX=0.5;exitY=1;exitDx=0;exitDy=0;entryX=0.5;entryY=0;entryDx=0;entryDy=0;dashed=1;endArrow=classicThin;endFill=1;movable=1;resizable=1;rotatable=1;deletable=1;editable=1;locked=0;connectable=1;fontColor=#242424;" edge="1" parent="o612tRX_a-N4mE84uSn3-135" source="o612tRX_a-N4mE84uSn3-145" target="o612tRX_a-N4mE84uSn3-146">
          <mxGeometry relative="1" as="geometry" />
        </mxCell>
        <mxCell id="o612tRX_a-N4mE84uSn3-144" style="rounded=0;orthogonalLoop=1;jettySize=auto;html=1;exitX=0.5;exitY=1;exitDx=0;exitDy=0;entryX=0.5;entryY=0;entryDx=0;entryDy=0;dashed=1;endArrow=classicThin;endFill=1;movable=1;resizable=1;rotatable=1;deletable=1;editable=1;locked=0;connectable=1;fontColor=#242424;" edge="1" parent="o612tRX_a-N4mE84uSn3-135" source="o612tRX_a-N4mE84uSn3-145" target="o612tRX_a-N4mE84uSn3-147">
          <mxGeometry relative="1" as="geometry" />
        </mxCell>
        <mxCell id="o612tRX_a-N4mE84uSn3-145" value="" style="ellipse;whiteSpace=wrap;html=1;fillColor=#E1D5E7;strokeColor=#A680B8;movable=1;resizable=1;rotatable=1;deletable=1;editable=1;locked=0;connectable=1;fontColor=#242424;container=0;" vertex="1" parent="o612tRX_a-N4mE84uSn3-135">
          <mxGeometry x="115.75" y="48.67131814572889" width="30" height="29.654212097152623" as="geometry" />
        </mxCell>
        <mxCell id="o612tRX_a-N4mE84uSn3-146" value="" style="ellipse;whiteSpace=wrap;html=1;fillColor=#CCE5FF;strokeColor=#66B2FF;movable=1;resizable=1;rotatable=1;deletable=1;editable=1;locked=0;connectable=1;fontColor=#242424;container=0;" vertex="1" parent="o612tRX_a-N4mE84uSn3-135">
          <mxGeometry x="39.75" y="114.89905849603639" width="30" height="29.654212097152623" as="geometry" />
        </mxCell>
        <mxCell id="o612tRX_a-N4mE84uSn3-147" value="" style="ellipse;whiteSpace=wrap;html=1;fillColor=#CCE5FF;strokeColor=#66B2FF;movable=1;resizable=1;rotatable=1;deletable=1;editable=1;locked=0;connectable=1;fontColor=#242424;container=0;" vertex="1" parent="o612tRX_a-N4mE84uSn3-135">
          <mxGeometry x="85.75" y="114.89905849603639" width="30" height="29.654212097152623" as="geometry" />
        </mxCell>
        <mxCell id="o612tRX_a-N4mE84uSn3-148" value="Local Model" style="text;html=1;align=center;verticalAlign=middle;resizable=0;points=[];autosize=1;strokeColor=none;fillColor=none;fontSize=24;fontFamily=Times New Roman;container=0;fontColor=#242424;" vertex="1" parent="o612tRX_a-N4mE84uSn3-135">
          <mxGeometry x="7.25" y="4.79083260816526" width="141" height="41" as="geometry" />
        </mxCell>
        <mxCell id="o612tRX_a-N4mE84uSn3-149" value="" style="group;fillColor=none;" vertex="1" connectable="0" parent="1">
          <mxGeometry x="988.5" y="-806.0008326081652" width="155" height="153.21342916862187" as="geometry" />
        </mxCell>
        <mxCell id="o612tRX_a-N4mE84uSn3-150" value="" style="rounded=1;whiteSpace=wrap;html=1;fillColor=#F7F7F7;strokeColor=#CCCCCC;movable=1;resizable=1;rotatable=1;deletable=1;editable=1;locked=0;connectable=1;fontColor=#242424;container=0;shadow=1;" vertex="1" parent="o612tRX_a-N4mE84uSn3-149">
          <mxGeometry width="155" height="153.21342916862187" as="geometry" />
        </mxCell>
        <mxCell id="o612tRX_a-N4mE84uSn3-151" style="rounded=0;orthogonalLoop=1;jettySize=auto;html=1;exitX=0.5;exitY=1;exitDx=0;exitDy=0;entryX=0.5;entryY=0;entryDx=0;entryDy=0;dashed=1;endArrow=classicThin;endFill=1;movable=1;resizable=1;rotatable=1;deletable=1;editable=1;locked=0;connectable=1;fontColor=#242424;" edge="1" parent="o612tRX_a-N4mE84uSn3-149" source="o612tRX_a-N4mE84uSn3-153" target="o612tRX_a-N4mE84uSn3-160">
          <mxGeometry relative="1" as="geometry" />
        </mxCell>
        <mxCell id="o612tRX_a-N4mE84uSn3-152" style="rounded=0;orthogonalLoop=1;jettySize=auto;html=1;exitX=0.5;exitY=1;exitDx=0;exitDy=0;entryX=0.5;entryY=0;entryDx=0;entryDy=0;dashed=1;endArrow=classicThin;endFill=1;movable=1;resizable=1;rotatable=1;deletable=1;editable=1;locked=0;connectable=1;fontColor=#242424;" edge="1" parent="o612tRX_a-N4mE84uSn3-149" source="o612tRX_a-N4mE84uSn3-153" target="o612tRX_a-N4mE84uSn3-161">
          <mxGeometry relative="1" as="geometry" />
        </mxCell>
        <mxCell id="o612tRX_a-N4mE84uSn3-153" value="" style="ellipse;whiteSpace=wrap;html=1;fillColor=#E1D5E7;strokeColor=#A680B8;movable=1;resizable=1;rotatable=1;deletable=1;editable=1;locked=0;connectable=1;fontColor=#242424;container=0;" vertex="1" parent="o612tRX_a-N4mE84uSn3-149">
          <mxGeometry x="9.75" y="48.67131814572889" width="30" height="29.654212097152623" as="geometry" />
        </mxCell>
        <mxCell id="o612tRX_a-N4mE84uSn3-154" style="rounded=0;orthogonalLoop=1;jettySize=auto;html=1;exitX=0.5;exitY=1;exitDx=0;exitDy=0;entryX=0.5;entryY=0;entryDx=0;entryDy=0;dashed=1;endArrow=classicThin;endFill=1;movable=1;resizable=1;rotatable=1;deletable=1;editable=1;locked=0;connectable=1;fontColor=#242424;" edge="1" parent="o612tRX_a-N4mE84uSn3-149" source="o612tRX_a-N4mE84uSn3-156" target="o612tRX_a-N4mE84uSn3-160">
          <mxGeometry relative="1" as="geometry" />
        </mxCell>
        <mxCell id="o612tRX_a-N4mE84uSn3-155" style="rounded=0;orthogonalLoop=1;jettySize=auto;html=1;exitX=0.5;exitY=1;exitDx=0;exitDy=0;entryX=0.5;entryY=0;entryDx=0;entryDy=0;dashed=1;endArrow=classicThin;endFill=1;movable=1;resizable=1;rotatable=1;deletable=1;editable=1;locked=0;connectable=1;fontColor=#242424;" edge="1" parent="o612tRX_a-N4mE84uSn3-149" source="o612tRX_a-N4mE84uSn3-156" target="o612tRX_a-N4mE84uSn3-161">
          <mxGeometry relative="1" as="geometry" />
        </mxCell>
        <mxCell id="o612tRX_a-N4mE84uSn3-156" value="" style="ellipse;whiteSpace=wrap;html=1;fillColor=#E1D5E7;strokeColor=#A680B8;movable=1;resizable=1;rotatable=1;deletable=1;editable=1;locked=0;connectable=1;fontColor=#242424;container=0;" vertex="1" parent="o612tRX_a-N4mE84uSn3-149">
          <mxGeometry x="62.75" y="48.67131814572889" width="30" height="29.654212097152623" as="geometry" />
        </mxCell>
        <mxCell id="o612tRX_a-N4mE84uSn3-157" style="rounded=0;orthogonalLoop=1;jettySize=auto;html=1;exitX=0.5;exitY=1;exitDx=0;exitDy=0;entryX=0.5;entryY=0;entryDx=0;entryDy=0;dashed=1;endArrow=classicThin;endFill=1;movable=1;resizable=1;rotatable=1;deletable=1;editable=1;locked=0;connectable=1;fontColor=#242424;" edge="1" parent="o612tRX_a-N4mE84uSn3-149" source="o612tRX_a-N4mE84uSn3-159" target="o612tRX_a-N4mE84uSn3-160">
          <mxGeometry relative="1" as="geometry" />
        </mxCell>
        <mxCell id="o612tRX_a-N4mE84uSn3-158" style="rounded=0;orthogonalLoop=1;jettySize=auto;html=1;exitX=0.5;exitY=1;exitDx=0;exitDy=0;entryX=0.5;entryY=0;entryDx=0;entryDy=0;dashed=1;endArrow=classicThin;endFill=1;movable=1;resizable=1;rotatable=1;deletable=1;editable=1;locked=0;connectable=1;fontColor=#242424;" edge="1" parent="o612tRX_a-N4mE84uSn3-149" source="o612tRX_a-N4mE84uSn3-159" target="o612tRX_a-N4mE84uSn3-161">
          <mxGeometry relative="1" as="geometry" />
        </mxCell>
        <mxCell id="o612tRX_a-N4mE84uSn3-159" value="" style="ellipse;whiteSpace=wrap;html=1;fillColor=#E1D5E7;strokeColor=#A680B8;movable=1;resizable=1;rotatable=1;deletable=1;editable=1;locked=0;connectable=1;fontColor=#242424;container=0;" vertex="1" parent="o612tRX_a-N4mE84uSn3-149">
          <mxGeometry x="115.75" y="48.67131814572889" width="30" height="29.654212097152623" as="geometry" />
        </mxCell>
        <mxCell id="o612tRX_a-N4mE84uSn3-160" value="" style="ellipse;whiteSpace=wrap;html=1;fillColor=#CCE5FF;strokeColor=#66B2FF;movable=1;resizable=1;rotatable=1;deletable=1;editable=1;locked=0;connectable=1;fontColor=#242424;container=0;" vertex="1" parent="o612tRX_a-N4mE84uSn3-149">
          <mxGeometry x="39.75" y="114.89905849603639" width="30" height="29.654212097152623" as="geometry" />
        </mxCell>
        <mxCell id="o612tRX_a-N4mE84uSn3-161" value="" style="ellipse;whiteSpace=wrap;html=1;fillColor=#CCE5FF;strokeColor=#66B2FF;movable=1;resizable=1;rotatable=1;deletable=1;editable=1;locked=0;connectable=1;fontColor=#242424;container=0;" vertex="1" parent="o612tRX_a-N4mE84uSn3-149">
          <mxGeometry x="85.75" y="114.89905849603639" width="30" height="29.654212097152623" as="geometry" />
        </mxCell>
        <mxCell id="o612tRX_a-N4mE84uSn3-162" value="Local Model" style="text;html=1;align=center;verticalAlign=middle;resizable=0;points=[];autosize=1;strokeColor=none;fillColor=none;fontSize=24;fontFamily=Times New Roman;container=0;fontColor=#242424;" vertex="1" parent="o612tRX_a-N4mE84uSn3-149">
          <mxGeometry x="7.25" y="4.79083260816526" width="141" height="41" as="geometry" />
        </mxCell>
        <mxCell id="o612tRX_a-N4mE84uSn3-163" value="" style="group;fillColor=none;" vertex="1" connectable="0" parent="1">
          <mxGeometry x="998.5" y="-796.0008326081652" width="155" height="153.21342916862187" as="geometry" />
        </mxCell>
        <mxCell id="o612tRX_a-N4mE84uSn3-164" value="" style="rounded=1;whiteSpace=wrap;html=1;fillColor=#F7F7F7;strokeColor=#CCCCCC;movable=1;resizable=1;rotatable=1;deletable=1;editable=1;locked=0;connectable=1;fontColor=#242424;container=0;shadow=1;" vertex="1" parent="o612tRX_a-N4mE84uSn3-163">
          <mxGeometry width="155" height="153.21342916862187" as="geometry" />
        </mxCell>
        <mxCell id="o612tRX_a-N4mE84uSn3-165" style="rounded=0;orthogonalLoop=1;jettySize=auto;html=1;exitX=0.5;exitY=1;exitDx=0;exitDy=0;entryX=0.5;entryY=0;entryDx=0;entryDy=0;dashed=1;endArrow=classicThin;endFill=1;movable=1;resizable=1;rotatable=1;deletable=1;editable=1;locked=0;connectable=1;fontColor=#242424;" edge="1" parent="o612tRX_a-N4mE84uSn3-163" source="o612tRX_a-N4mE84uSn3-167" target="o612tRX_a-N4mE84uSn3-174">
          <mxGeometry relative="1" as="geometry" />
        </mxCell>
        <mxCell id="o612tRX_a-N4mE84uSn3-166" style="rounded=0;orthogonalLoop=1;jettySize=auto;html=1;exitX=0.5;exitY=1;exitDx=0;exitDy=0;entryX=0.5;entryY=0;entryDx=0;entryDy=0;dashed=1;endArrow=classicThin;endFill=1;movable=1;resizable=1;rotatable=1;deletable=1;editable=1;locked=0;connectable=1;fontColor=#242424;" edge="1" parent="o612tRX_a-N4mE84uSn3-163" source="o612tRX_a-N4mE84uSn3-167" target="o612tRX_a-N4mE84uSn3-175">
          <mxGeometry relative="1" as="geometry" />
        </mxCell>
        <mxCell id="o612tRX_a-N4mE84uSn3-167" value="" style="ellipse;whiteSpace=wrap;html=1;fillColor=#E1D5E7;strokeColor=#A680B8;movable=1;resizable=1;rotatable=1;deletable=1;editable=1;locked=0;connectable=1;fontColor=#242424;container=0;" vertex="1" parent="o612tRX_a-N4mE84uSn3-163">
          <mxGeometry x="9.75" y="48.67131814572889" width="30" height="29.654212097152623" as="geometry" />
        </mxCell>
        <mxCell id="o612tRX_a-N4mE84uSn3-168" style="rounded=0;orthogonalLoop=1;jettySize=auto;html=1;exitX=0.5;exitY=1;exitDx=0;exitDy=0;entryX=0.5;entryY=0;entryDx=0;entryDy=0;dashed=1;endArrow=classicThin;endFill=1;movable=1;resizable=1;rotatable=1;deletable=1;editable=1;locked=0;connectable=1;fontColor=#242424;" edge="1" parent="o612tRX_a-N4mE84uSn3-163" source="o612tRX_a-N4mE84uSn3-170" target="o612tRX_a-N4mE84uSn3-174">
          <mxGeometry relative="1" as="geometry" />
        </mxCell>
        <mxCell id="o612tRX_a-N4mE84uSn3-169" style="rounded=0;orthogonalLoop=1;jettySize=auto;html=1;exitX=0.5;exitY=1;exitDx=0;exitDy=0;entryX=0.5;entryY=0;entryDx=0;entryDy=0;dashed=1;endArrow=classicThin;endFill=1;movable=1;resizable=1;rotatable=1;deletable=1;editable=1;locked=0;connectable=1;fontColor=#242424;" edge="1" parent="o612tRX_a-N4mE84uSn3-163" source="o612tRX_a-N4mE84uSn3-170" target="o612tRX_a-N4mE84uSn3-175">
          <mxGeometry relative="1" as="geometry" />
        </mxCell>
        <mxCell id="o612tRX_a-N4mE84uSn3-170" value="" style="ellipse;whiteSpace=wrap;html=1;fillColor=#E1D5E7;strokeColor=#A680B8;movable=1;resizable=1;rotatable=1;deletable=1;editable=1;locked=0;connectable=1;fontColor=#242424;container=0;" vertex="1" parent="o612tRX_a-N4mE84uSn3-163">
          <mxGeometry x="62.75" y="48.67131814572889" width="30" height="29.654212097152623" as="geometry" />
        </mxCell>
        <mxCell id="o612tRX_a-N4mE84uSn3-171" style="rounded=0;orthogonalLoop=1;jettySize=auto;html=1;exitX=0.5;exitY=1;exitDx=0;exitDy=0;entryX=0.5;entryY=0;entryDx=0;entryDy=0;dashed=1;endArrow=classicThin;endFill=1;movable=1;resizable=1;rotatable=1;deletable=1;editable=1;locked=0;connectable=1;fontColor=#242424;" edge="1" parent="o612tRX_a-N4mE84uSn3-163" source="o612tRX_a-N4mE84uSn3-173" target="o612tRX_a-N4mE84uSn3-174">
          <mxGeometry relative="1" as="geometry" />
        </mxCell>
        <mxCell id="o612tRX_a-N4mE84uSn3-172" style="rounded=0;orthogonalLoop=1;jettySize=auto;html=1;exitX=0.5;exitY=1;exitDx=0;exitDy=0;entryX=0.5;entryY=0;entryDx=0;entryDy=0;dashed=1;endArrow=classicThin;endFill=1;movable=1;resizable=1;rotatable=1;deletable=1;editable=1;locked=0;connectable=1;fontColor=#242424;" edge="1" parent="o612tRX_a-N4mE84uSn3-163" source="o612tRX_a-N4mE84uSn3-173" target="o612tRX_a-N4mE84uSn3-175">
          <mxGeometry relative="1" as="geometry" />
        </mxCell>
        <mxCell id="o612tRX_a-N4mE84uSn3-173" value="" style="ellipse;whiteSpace=wrap;html=1;fillColor=#E1D5E7;strokeColor=#A680B8;movable=1;resizable=1;rotatable=1;deletable=1;editable=1;locked=0;connectable=1;fontColor=#242424;container=0;" vertex="1" parent="o612tRX_a-N4mE84uSn3-163">
          <mxGeometry x="115.75" y="48.67131814572889" width="30" height="29.654212097152623" as="geometry" />
        </mxCell>
        <mxCell id="o612tRX_a-N4mE84uSn3-174" value="" style="ellipse;whiteSpace=wrap;html=1;fillColor=#CCE5FF;strokeColor=#66B2FF;movable=1;resizable=1;rotatable=1;deletable=1;editable=1;locked=0;connectable=1;fontColor=#242424;container=0;" vertex="1" parent="o612tRX_a-N4mE84uSn3-163">
          <mxGeometry x="39.75" y="114.89905849603639" width="30" height="29.654212097152623" as="geometry" />
        </mxCell>
        <mxCell id="o612tRX_a-N4mE84uSn3-175" value="" style="ellipse;whiteSpace=wrap;html=1;fillColor=#CCE5FF;strokeColor=#66B2FF;movable=1;resizable=1;rotatable=1;deletable=1;editable=1;locked=0;connectable=1;fontColor=#242424;container=0;" vertex="1" parent="o612tRX_a-N4mE84uSn3-163">
          <mxGeometry x="85.75" y="114.89905849603639" width="30" height="29.654212097152623" as="geometry" />
        </mxCell>
        <mxCell id="o612tRX_a-N4mE84uSn3-176" value="Local Model" style="text;html=1;align=center;verticalAlign=middle;resizable=0;points=[];autosize=1;strokeColor=none;fillColor=none;fontSize=24;fontFamily=Times New Roman;container=0;fontColor=#242424;" vertex="1" parent="o612tRX_a-N4mE84uSn3-163">
          <mxGeometry x="7.25" y="4.79083260816526" width="141" height="41" as="geometry" />
        </mxCell>
        <mxCell id="o612tRX_a-N4mE84uSn3-177" value="" style="group;fillColor=none;" vertex="1" connectable="0" parent="1">
          <mxGeometry x="1008.5" y="-786.0008326081652" width="155" height="153.21342916862187" as="geometry" />
        </mxCell>
        <mxCell id="o612tRX_a-N4mE84uSn3-178" value="" style="rounded=1;whiteSpace=wrap;html=1;fillColor=#F7F7F7;strokeColor=#CCCCCC;movable=1;resizable=1;rotatable=1;deletable=1;editable=1;locked=0;connectable=1;fontColor=#242424;container=0;shadow=1;" vertex="1" parent="o612tRX_a-N4mE84uSn3-177">
          <mxGeometry width="155" height="153.21342916862187" as="geometry" />
        </mxCell>
        <mxCell id="o612tRX_a-N4mE84uSn3-179" style="rounded=0;orthogonalLoop=1;jettySize=auto;html=1;exitX=0.5;exitY=1;exitDx=0;exitDy=0;entryX=0.5;entryY=0;entryDx=0;entryDy=0;dashed=1;endArrow=classicThin;endFill=1;movable=1;resizable=1;rotatable=1;deletable=1;editable=1;locked=0;connectable=1;fontColor=#242424;" edge="1" parent="o612tRX_a-N4mE84uSn3-177" source="o612tRX_a-N4mE84uSn3-181" target="o612tRX_a-N4mE84uSn3-188">
          <mxGeometry relative="1" as="geometry" />
        </mxCell>
        <mxCell id="o612tRX_a-N4mE84uSn3-180" style="rounded=0;orthogonalLoop=1;jettySize=auto;html=1;exitX=0.5;exitY=1;exitDx=0;exitDy=0;entryX=0.5;entryY=0;entryDx=0;entryDy=0;dashed=1;endArrow=classicThin;endFill=1;movable=1;resizable=1;rotatable=1;deletable=1;editable=1;locked=0;connectable=1;fontColor=#242424;" edge="1" parent="o612tRX_a-N4mE84uSn3-177" source="o612tRX_a-N4mE84uSn3-181" target="o612tRX_a-N4mE84uSn3-189">
          <mxGeometry relative="1" as="geometry" />
        </mxCell>
        <mxCell id="o612tRX_a-N4mE84uSn3-181" value="" style="ellipse;whiteSpace=wrap;html=1;fillColor=#E1D5E7;strokeColor=#A680B8;movable=1;resizable=1;rotatable=1;deletable=1;editable=1;locked=0;connectable=1;fontColor=#242424;container=0;" vertex="1" parent="o612tRX_a-N4mE84uSn3-177">
          <mxGeometry x="9.75" y="48.67131814572889" width="30" height="29.654212097152623" as="geometry" />
        </mxCell>
        <mxCell id="o612tRX_a-N4mE84uSn3-182" style="rounded=0;orthogonalLoop=1;jettySize=auto;html=1;exitX=0.5;exitY=1;exitDx=0;exitDy=0;entryX=0.5;entryY=0;entryDx=0;entryDy=0;dashed=1;endArrow=classicThin;endFill=1;movable=1;resizable=1;rotatable=1;deletable=1;editable=1;locked=0;connectable=1;fontColor=#242424;" edge="1" parent="o612tRX_a-N4mE84uSn3-177" source="o612tRX_a-N4mE84uSn3-184" target="o612tRX_a-N4mE84uSn3-188">
          <mxGeometry relative="1" as="geometry" />
        </mxCell>
        <mxCell id="o612tRX_a-N4mE84uSn3-183" style="rounded=0;orthogonalLoop=1;jettySize=auto;html=1;exitX=0.5;exitY=1;exitDx=0;exitDy=0;entryX=0.5;entryY=0;entryDx=0;entryDy=0;dashed=1;endArrow=classicThin;endFill=1;movable=1;resizable=1;rotatable=1;deletable=1;editable=1;locked=0;connectable=1;fontColor=#242424;" edge="1" parent="o612tRX_a-N4mE84uSn3-177" source="o612tRX_a-N4mE84uSn3-184" target="o612tRX_a-N4mE84uSn3-189">
          <mxGeometry relative="1" as="geometry" />
        </mxCell>
        <mxCell id="o612tRX_a-N4mE84uSn3-184" value="" style="ellipse;whiteSpace=wrap;html=1;fillColor=#E1D5E7;strokeColor=#A680B8;movable=1;resizable=1;rotatable=1;deletable=1;editable=1;locked=0;connectable=1;fontColor=#242424;container=0;" vertex="1" parent="o612tRX_a-N4mE84uSn3-177">
          <mxGeometry x="62.75" y="48.67131814572889" width="30" height="29.654212097152623" as="geometry" />
        </mxCell>
        <mxCell id="o612tRX_a-N4mE84uSn3-185" style="rounded=0;orthogonalLoop=1;jettySize=auto;html=1;exitX=0.5;exitY=1;exitDx=0;exitDy=0;entryX=0.5;entryY=0;entryDx=0;entryDy=0;dashed=1;endArrow=classicThin;endFill=1;movable=1;resizable=1;rotatable=1;deletable=1;editable=1;locked=0;connectable=1;fontColor=#242424;" edge="1" parent="o612tRX_a-N4mE84uSn3-177" source="o612tRX_a-N4mE84uSn3-187" target="o612tRX_a-N4mE84uSn3-188">
          <mxGeometry relative="1" as="geometry" />
        </mxCell>
        <mxCell id="o612tRX_a-N4mE84uSn3-186" style="rounded=0;orthogonalLoop=1;jettySize=auto;html=1;exitX=0.5;exitY=1;exitDx=0;exitDy=0;entryX=0.5;entryY=0;entryDx=0;entryDy=0;dashed=1;endArrow=classicThin;endFill=1;movable=1;resizable=1;rotatable=1;deletable=1;editable=1;locked=0;connectable=1;fontColor=#242424;" edge="1" parent="o612tRX_a-N4mE84uSn3-177" source="o612tRX_a-N4mE84uSn3-187" target="o612tRX_a-N4mE84uSn3-189">
          <mxGeometry relative="1" as="geometry" />
        </mxCell>
        <mxCell id="o612tRX_a-N4mE84uSn3-187" value="" style="ellipse;whiteSpace=wrap;html=1;fillColor=#E1D5E7;strokeColor=#A680B8;movable=1;resizable=1;rotatable=1;deletable=1;editable=1;locked=0;connectable=1;fontColor=#242424;container=0;" vertex="1" parent="o612tRX_a-N4mE84uSn3-177">
          <mxGeometry x="115.75" y="48.67131814572889" width="30" height="29.654212097152623" as="geometry" />
        </mxCell>
        <mxCell id="o612tRX_a-N4mE84uSn3-188" value="" style="ellipse;whiteSpace=wrap;html=1;fillColor=#CCE5FF;strokeColor=#66B2FF;movable=1;resizable=1;rotatable=1;deletable=1;editable=1;locked=0;connectable=1;fontColor=#242424;container=0;" vertex="1" parent="o612tRX_a-N4mE84uSn3-177">
          <mxGeometry x="39.75" y="114.89905849603639" width="30" height="29.654212097152623" as="geometry" />
        </mxCell>
        <mxCell id="o612tRX_a-N4mE84uSn3-189" value="" style="ellipse;whiteSpace=wrap;html=1;fillColor=#CCE5FF;strokeColor=#66B2FF;movable=1;resizable=1;rotatable=1;deletable=1;editable=1;locked=0;connectable=1;fontColor=#242424;container=0;" vertex="1" parent="o612tRX_a-N4mE84uSn3-177">
          <mxGeometry x="85.75" y="114.89905849603639" width="30" height="29.654212097152623" as="geometry" />
        </mxCell>
        <mxCell id="o612tRX_a-N4mE84uSn3-190" value="本地模型" style="text;html=1;align=center;verticalAlign=middle;resizable=0;points=[];autosize=1;strokeColor=none;fillColor=none;fontSize=24;fontFamily=Times New Roman;container=0;fontColor=#242424;" vertex="1" parent="o612tRX_a-N4mE84uSn3-177">
          <mxGeometry x="21.25" y="4.79083260816526" width="114" height="41" as="geometry" />
        </mxCell>
        <mxCell id="o612tRX_a-N4mE84uSn3-191" value="邻居j" style="text;html=1;align=center;verticalAlign=middle;resizable=0;points=[];autosize=1;strokeColor=none;fillColor=none;fontSize=24;fontFamily=Times New Roman;container=0;fontColor=#242424;" vertex="1" parent="1">
          <mxGeometry x="1019.5" y="-863.89" width="73" height="41" as="geometry" />
        </mxCell>
        <mxCell id="o612tRX_a-N4mE84uSn3-192" value="" style="html=1;shadow=0;dashed=0;align=center;verticalAlign=middle;shape=mxgraph.arrows2.stylisedArrow;dy=0.76;dx=18.55;notch=7.74;feather=0.49;rotation=-145;aspect=fixed;fillColor=#FFF2CC;strokeColor=#FFCE9F;fontColor=#242424;" vertex="1" parent="1">
          <mxGeometry x="922.88" y="-801" width="46.96" height="30.98" as="geometry" />
        </mxCell>
        <mxCell id="o612tRX_a-N4mE84uSn3-193" value="" style="html=1;shadow=0;dashed=0;align=center;verticalAlign=middle;shape=mxgraph.arrows2.stylisedArrow;dy=0.76;dx=18.55;notch=7.74;feather=0.49;rotation=-215;aspect=fixed;fillColor=#FFF2CC;strokeColor=#FFCE9F;fontColor=#242424;" vertex="1" parent="1">
          <mxGeometry x="922.88" y="-700.99" width="46.96" height="30.98" as="geometry" />
        </mxCell>
        <mxCell id="o612tRX_a-N4mE84uSn3-194" style="edgeStyle=orthogonalEdgeStyle;rounded=0;orthogonalLoop=1;jettySize=auto;html=1;" edge="1" parent="1" source="o612tRX_a-N4mE84uSn3-195">
          <mxGeometry relative="1" as="geometry">
            <mxPoint x="448" y="-696" as="targetPoint" />
          </mxGeometry>
        </mxCell>
        <mxCell id="o612tRX_a-N4mE84uSn3-195" value="特征提取层" style="text;html=1;align=center;verticalAlign=middle;resizable=0;points=[];autosize=1;strokeColor=none;fillColor=none;fontSize=24;fontFamily=Times New Roman;container=0;fontColor=#242424;" vertex="1" parent="1">
          <mxGeometry x="379.17" y="-904.89" width="138" height="41" as="geometry" />
        </mxCell>
        <mxCell id="o612tRX_a-N4mE84uSn3-196" value="输出层" style="text;html=1;align=center;verticalAlign=middle;resizable=0;points=[];autosize=1;strokeColor=none;fillColor=none;fontSize=24;fontFamily=Times New Roman;container=0;fontColor=#242424;" vertex="1" parent="1">
          <mxGeometry x="164.50000000000003" y="-616.79" width="90" height="41" as="geometry" />
        </mxCell>
        <mxCell id="o612tRX_a-N4mE84uSn3-197" value="&lt;span style=&quot;font-family: &amp;quot;Times New Roman&amp;quot;; font-style: normal; font-variant-ligatures: normal; font-variant-caps: normal; letter-spacing: normal; orphans: 2; text-align: center; text-indent: 0px; text-transform: none; widows: 2; word-spacing: 0px; -webkit-text-stroke-width: 0px; white-space: nowrap; text-decoration-thickness: initial; text-decoration-style: initial; text-decoration-color: initial; float: none; display: inline !important;&quot;&gt;&lt;font style=&quot;font-size: 20px;&quot;&gt;①&lt;/font&gt;&lt;/span&gt;" style="text;whiteSpace=wrap;html=1;fontStyle=0;fontColor=#FF0000;fillColor=none;" vertex="1" parent="1">
          <mxGeometry x="276" y="-874" width="31.28" height="38" as="geometry" />
        </mxCell>
        <mxCell id="o612tRX_a-N4mE84uSn3-198" value="&lt;span style=&quot;font-family: &amp;quot;Times New Roman&amp;quot;; font-style: normal; font-variant-ligatures: normal; font-variant-caps: normal; letter-spacing: normal; orphans: 2; text-align: center; text-indent: 0px; text-transform: none; widows: 2; word-spacing: 0px; -webkit-text-stroke-width: 0px; white-space: nowrap; text-decoration-thickness: initial; text-decoration-style: initial; text-decoration-color: initial; float: none; display: inline !important;&quot;&gt;&lt;font style=&quot;color: rgb(255, 0, 0); font-size: 20px;&quot;&gt;②&amp;nbsp;&lt;/font&gt;&lt;/span&gt;" style="text;whiteSpace=wrap;html=1;" vertex="1" parent="1">
          <mxGeometry x="594.04" y="-757.89" width="27.98" height="37" as="geometry" />
        </mxCell>
        <mxCell id="o612tRX_a-N4mE84uSn3-199" value="" style="html=1;shadow=0;dashed=0;align=center;verticalAlign=middle;shape=mxgraph.arrows2.stylisedArrow;dy=0.75;dx=31.61;notch=7.74;feather=0.49;rotation=-125;fillColor=#FFCCCC;strokeColor=#F19C99;fontColor=#242424;" vertex="1" parent="1">
          <mxGeometry x="309.03" y="-770.02" width="84.5" height="47.18" as="geometry" />
        </mxCell>
        <mxCell id="o612tRX_a-N4mE84uSn3-200" value="" style="html=1;verticalLabelPosition=bottom;align=center;labelBackgroundColor=#ffffff;verticalAlign=top;strokeWidth=2;strokeColor=#97D077;shadow=0;dashed=0;shape=mxgraph.ios7.icons.data;aspect=fixed;fillColor=#D5E8D4;" vertex="1" parent="1">
          <mxGeometry x="296" y="-839" width="36.92" height="44.76" as="geometry" />
        </mxCell>
        <mxCell id="o612tRX_a-N4mE84uSn3-201" value="" style="curved=1;endArrow=classic;html=1;rounded=0;" edge="1" parent="1">
          <mxGeometry width="50" height="50" relative="1" as="geometry">
            <mxPoint x="245" y="-839" as="sourcePoint" />
            <mxPoint x="287" y="-827" as="targetPoint" />
            <Array as="points">
              <mxPoint x="273" y="-854" />
            </Array>
          </mxGeometry>
        </mxCell>
        <mxCell id="o612tRX_a-N4mE84uSn3-202" value="" style="curved=1;endArrow=classic;html=1;rounded=0;" edge="1" parent="1">
          <mxGeometry width="50" height="50" relative="1" as="geometry">
            <mxPoint x="286" y="-817" as="sourcePoint" />
            <mxPoint x="246.25" y="-830.77" as="targetPoint" />
            <Array as="points">
              <mxPoint x="259" y="-802" />
            </Array>
          </mxGeometry>
        </mxCell>
        <mxCell id="o612tRX_a-N4mE84uSn3-203" value="&lt;span style=&quot;font-size: 20px; font-family: &amp;quot;Times New Roman&amp;quot;; text-align: start; text-wrap-mode: wrap;&quot;&gt;&lt;font style=&quot;color: rgb(255, 0, 0);&quot;&gt;③&lt;/font&gt;&lt;/span&gt;" style="text;html=1;align=center;verticalAlign=middle;resizable=0;points=[];autosize=1;strokeColor=none;fillColor=none;" vertex="1" parent="1">
          <mxGeometry x="322.46" y="-693.5" width="38" height="36" as="geometry" />
        </mxCell>
        <mxCell id="o612tRX_a-N4mE84uSn3-204" value="&lt;span style=&quot;font-size: 20px; font-family: &amp;quot;Times New Roman&amp;quot;; text-align: start; text-wrap-mode: wrap;&quot;&gt;&lt;font style=&quot;color: rgb(255, 0, 0);&quot;&gt;③&lt;/font&gt;&lt;/span&gt;" style="text;html=1;align=center;verticalAlign=middle;resizable=0;points=[];autosize=1;strokeColor=none;fillColor=none;" vertex="1" parent="1">
          <mxGeometry x="637.5" y="-611.79" width="38" height="36" as="geometry" />
        </mxCell>
        <mxCell id="o612tRX_a-N4mE84uSn3-205" value="&lt;span style=&quot;font-style: normal; font-variant-ligatures: normal; font-variant-caps: normal; font-weight: 400; letter-spacing: normal; orphans: 2; text-align: left; text-indent: 0px; text-transform: none; widows: 2; word-spacing: 0px; -webkit-text-stroke-width: 0px; white-space: normal; text-decoration-thickness: initial; text-decoration-style: initial; text-decoration-color: initial; float: none; display: inline !important;&quot;&gt;&lt;font style=&quot;font-size: 20px; color: rgb(255, 0, 0);&quot; face=&quot;Times New Roman&quot;&gt;④&lt;/font&gt;&lt;/span&gt;" style="text;whiteSpace=wrap;html=1;" vertex="1" parent="1">
          <mxGeometry x="420" y="-801.64" width="27.91" height="35.64" as="geometry" />
        </mxCell>
        <mxCell id="o612tRX_a-N4mE84uSn3-206" value="&lt;span style=&quot;font-style: normal; font-variant-ligatures: normal; font-variant-caps: normal; font-weight: 400; letter-spacing: normal; orphans: 2; text-align: left; text-indent: 0px; text-transform: none; widows: 2; word-spacing: 0px; -webkit-text-stroke-width: 0px; white-space: normal; text-decoration-thickness: initial; text-decoration-style: initial; text-decoration-color: initial; float: none; display: inline !important;&quot;&gt;&lt;font style=&quot;font-size: 20px; color: rgb(255, 0, 0);&quot; face=&quot;Times New Roman&quot;&gt;④&lt;/font&gt;&lt;/span&gt;" style="text;whiteSpace=wrap;html=1;" vertex="1" parent="1">
          <mxGeometry x="504.68999999999994" y="-801" width="27.91" height="35.64" as="geometry" />
        </mxCell>
      </root>
    </mxGraphModel>
  </diagram>
</mxfile>
